<?xml version="1.0" encoding="utf-8"?>
<!-- Generator: Adobe Illustrator 27.9.6, SVG Export Plug-In . SVG Version: 9.03 Build 54986)  -->
<svg version="1.1" id="圖層_2" xmlns="http://www.w3.org/2000/svg" xmlns:xlink="http://www.w3.org/1999/xlink" x="0px" y="0px"
	 viewBox="0 0 98.08 47.3" style="enable-background:new 0 0 98.08 47.3;" xml:space="preserve">
<style type="text/css">
	.st0{fill:none;}
	.st1{fill:#F7C454;}
	.st2{fill:#FFFFFF;}
</style>
<pattern  x="-246.64" y="477.81" width="69" height="69" patternUnits="userSpaceOnUse" id="圓點圖樣" viewBox="2.12 -70.9 69 69" style="overflow:visible;">
	<g>
		<rect x="2.12" y="-70.9" class="st0" width="69" height="69"/>
		<rect x="2.12" y="-70.9" class="st1" width="69" height="69"/>
		<g>
			<path class="st2" d="M61.77-71.65c0.02,0.07,0.01,0.13-0.03,0.19c-0.05,0.1-0.11,0.06-0.17,0.13c-0.05,0.06-0.1,0.28-0.08,0.36
				c-0.17,0.06-0.01,0.23-0.02,0.35c0,0.05-0.04,0.11-0.04,0.16c-0.01,0.12,0.02,0.27,0.07,0.37c0.1,0.2,0.27,0.41,0.44,0.54
				c0.19,0.15,0.36,0.57,0.61,0.63c0.18,0.04,0.38-0.1,0.54-0.14c0.18-0.04,0.4,0.01,0.57-0.05c0.22-0.08,0.13-0.34,0.29-0.45
				c0.1-0.07,0.29-0.01,0.41-0.05c0.2-0.07,0.34-0.26,0.38-0.46c0.02-0.08,0.01-0.14,0.04-0.22c0.04-0.1,0.11-0.16,0.09-0.29
				c-0.01-0.06-0.05-0.12-0.06-0.19c-0.02-0.11,0-0.22,0-0.34c0-0.2,0.02-0.38-0.08-0.55c-0.38-0.69-1.24-0.93-1.97-0.79
				c-0.18,0.03-0.29,0.13-0.44,0.21c-0.17,0.09-0.14,0.17-0.32,0.22c-0.08,0.03-0.22,0.12-0.21,0.22c0,0.12,0,0.05,0.01,0.17
				c-0.02,0.01-0.02,0-0.03-0.03"/>
			<path class="st2" d="M54.11-71.65c0.02,0.07,0.01,0.13-0.03,0.19c-0.05,0.1-0.11,0.06-0.17,0.13c-0.05,0.06-0.1,0.28-0.08,0.36
				c-0.17,0.06-0.01,0.23-0.02,0.35c0,0.05-0.04,0.11-0.04,0.16c-0.01,0.12,0.02,0.27,0.07,0.37c0.1,0.2,0.27,0.41,0.44,0.54
				c0.19,0.15,0.36,0.57,0.61,0.63c0.18,0.04,0.38-0.1,0.54-0.14c0.18-0.04,0.4,0.01,0.57-0.05c0.22-0.08,0.13-0.34,0.29-0.45
				c0.1-0.07,0.29-0.01,0.41-0.05c0.2-0.07,0.34-0.26,0.38-0.46c0.02-0.08,0.01-0.14,0.04-0.22c0.04-0.1,0.11-0.16,0.09-0.29
				c-0.01-0.06-0.05-0.12-0.06-0.19c-0.02-0.11,0-0.22,0-0.34c0-0.2,0.02-0.38-0.08-0.55c-0.38-0.69-1.24-0.93-1.97-0.79
				c-0.18,0.03-0.29,0.13-0.44,0.21c-0.17,0.09-0.14,0.17-0.32,0.22c-0.08,0.03-0.22,0.12-0.21,0.22c0,0.12,0,0.05,0.01,0.17
				c-0.02,0.01-0.02,0-0.03-0.03"/>
			<path class="st2" d="M46.44-71.65c0.02,0.07,0.01,0.13-0.03,0.19c-0.05,0.1-0.11,0.06-0.17,0.13c-0.05,0.06-0.1,0.28-0.08,0.36
				c-0.17,0.06-0.01,0.23-0.02,0.35c0,0.05-0.04,0.11-0.04,0.16c-0.01,0.12,0.02,0.27,0.07,0.37c0.1,0.2,0.27,0.41,0.44,0.54
				c0.19,0.15,0.36,0.57,0.61,0.63c0.18,0.04,0.38-0.1,0.54-0.14c0.18-0.04,0.4,0.01,0.57-0.05c0.22-0.08,0.13-0.34,0.29-0.45
				c0.1-0.07,0.29-0.01,0.41-0.05c0.2-0.07,0.34-0.26,0.38-0.46c0.02-0.08,0.01-0.14,0.04-0.22c0.04-0.1,0.11-0.16,0.09-0.29
				c-0.01-0.06-0.05-0.12-0.06-0.19c-0.02-0.11,0-0.22,0-0.34c0-0.2,0.02-0.38-0.08-0.55c-0.38-0.69-1.24-0.93-1.97-0.79
				c-0.18,0.03-0.29,0.13-0.44,0.21c-0.17,0.09-0.14,0.17-0.32,0.22c-0.08,0.03-0.22,0.12-0.21,0.22c0,0.12,0,0.05,0.01,0.17
				c-0.02,0.01-0.02,0-0.03-0.03"/>
			<path class="st2" d="M38.77-71.65c0.02,0.07,0.01,0.13-0.03,0.19c-0.05,0.1-0.11,0.06-0.17,0.13c-0.05,0.06-0.1,0.28-0.08,0.36
				c-0.17,0.06-0.01,0.23-0.02,0.35c0,0.05-0.04,0.11-0.04,0.16c-0.01,0.12,0.02,0.27,0.07,0.37c0.1,0.2,0.27,0.41,0.44,0.54
				c0.19,0.15,0.36,0.57,0.61,0.63c0.18,0.04,0.38-0.1,0.54-0.14c0.18-0.04,0.4,0.01,0.57-0.05c0.22-0.08,0.13-0.34,0.29-0.45
				c0.1-0.07,0.29-0.01,0.41-0.05c0.2-0.07,0.34-0.26,0.38-0.46c0.02-0.08,0.01-0.14,0.04-0.22c0.04-0.1,0.11-0.16,0.09-0.29
				c-0.01-0.06-0.05-0.12-0.06-0.19c-0.02-0.11,0-0.22,0-0.34c0-0.2,0.02-0.38-0.08-0.55c-0.38-0.69-1.24-0.93-1.97-0.79
				c-0.18,0.03-0.29,0.13-0.44,0.21c-0.17,0.09-0.14,0.17-0.32,0.22c-0.08,0.03-0.22,0.12-0.21,0.22c0,0.12,0,0.05,0.01,0.17
				c-0.02,0.01-0.02,0-0.03-0.03"/>
			<path class="st2" d="M31.11-71.65c0.02,0.07,0.01,0.13-0.03,0.19c-0.05,0.1-0.11,0.06-0.16,0.13c-0.05,0.06-0.1,0.28-0.08,0.36
				c-0.17,0.06-0.01,0.23-0.02,0.35c0,0.05-0.04,0.11-0.04,0.16c-0.01,0.12,0.02,0.27,0.07,0.37c0.1,0.2,0.27,0.41,0.43,0.54
				c0.19,0.15,0.36,0.57,0.61,0.63c0.18,0.04,0.38-0.1,0.54-0.14c0.18-0.04,0.4,0.01,0.57-0.05c0.22-0.08,0.13-0.34,0.29-0.45
				c0.1-0.07,0.29-0.01,0.41-0.05c0.2-0.07,0.34-0.26,0.38-0.46c0.02-0.08,0.01-0.14,0.04-0.22c0.04-0.1,0.11-0.16,0.09-0.29
				c-0.01-0.06-0.05-0.12-0.06-0.19c-0.02-0.11,0-0.22,0-0.34c0-0.2,0.02-0.38-0.08-0.55c-0.38-0.69-1.24-0.93-1.97-0.79
				c-0.18,0.03-0.29,0.13-0.44,0.21c-0.17,0.09-0.14,0.17-0.32,0.22c-0.08,0.03-0.22,0.12-0.21,0.22c0,0.12,0,0.05,0.01,0.17
				c-0.02,0.01-0.02,0-0.03-0.03"/>
			<path class="st2" d="M23.44-71.65c0.02,0.07,0.01,0.13-0.03,0.19c-0.05,0.1-0.11,0.06-0.17,0.13c-0.05,0.06-0.1,0.28-0.08,0.36
				c-0.17,0.06-0.01,0.23-0.02,0.35c0,0.05-0.04,0.11-0.04,0.16c-0.01,0.12,0.02,0.27,0.07,0.37c0.1,0.2,0.27,0.41,0.43,0.54
				c0.19,0.15,0.36,0.57,0.61,0.63c0.18,0.04,0.38-0.1,0.54-0.14c0.18-0.04,0.4,0.01,0.57-0.05c0.22-0.08,0.13-0.34,0.29-0.45
				c0.1-0.07,0.29-0.01,0.41-0.05c0.2-0.07,0.34-0.26,0.38-0.46c0.02-0.08,0.01-0.14,0.04-0.22c0.04-0.1,0.11-0.16,0.09-0.29
				c-0.01-0.06-0.05-0.12-0.06-0.19c-0.02-0.11,0-0.22,0-0.34c0-0.2,0.02-0.38-0.08-0.55c-0.38-0.69-1.24-0.93-1.97-0.79
				c-0.18,0.03-0.29,0.13-0.44,0.21c-0.17,0.09-0.14,0.17-0.32,0.22c-0.08,0.03-0.22,0.12-0.21,0.22c0,0.12,0,0.05,0.01,0.17
				c-0.02,0.01-0.02,0-0.03-0.03"/>
			<path class="st2" d="M15.77-71.65c0.02,0.07,0.01,0.13-0.03,0.19c-0.05,0.1-0.11,0.06-0.17,0.13c-0.05,0.06-0.1,0.28-0.08,0.36
				c-0.17,0.06-0.01,0.23-0.02,0.35c0,0.05-0.04,0.11-0.04,0.16c-0.01,0.12,0.02,0.27,0.07,0.37c0.1,0.2,0.27,0.41,0.44,0.54
				c0.19,0.15,0.36,0.57,0.61,0.63c0.18,0.04,0.38-0.1,0.54-0.14c0.18-0.04,0.4,0.01,0.57-0.05c0.22-0.08,0.13-0.34,0.29-0.45
				c0.1-0.07,0.29-0.01,0.41-0.05c0.2-0.07,0.34-0.26,0.38-0.46c0.02-0.08,0.01-0.14,0.04-0.22c0.04-0.1,0.11-0.16,0.09-0.29
				c-0.01-0.06-0.05-0.12-0.06-0.19c-0.02-0.11,0-0.22,0-0.34c0-0.2,0.02-0.38-0.08-0.55c-0.38-0.69-1.24-0.93-1.97-0.79
				c-0.18,0.03-0.29,0.13-0.44,0.21c-0.17,0.09-0.14,0.17-0.32,0.22c-0.08,0.03-0.22,0.12-0.21,0.22c0,0.12,0,0.05,0.01,0.17
				c-0.02,0.01-0.02,0-0.03-0.03"/>
			<path class="st2" d="M8.11-71.65c0.02,0.07,0.01,0.13-0.03,0.19c-0.05,0.1-0.11,0.06-0.17,0.13c-0.05,0.06-0.1,0.28-0.08,0.36
				c-0.17,0.06-0.01,0.23-0.02,0.35c0,0.05-0.04,0.11-0.04,0.16c-0.01,0.12,0.02,0.27,0.07,0.37c0.1,0.2,0.27,0.41,0.44,0.54
				c0.19,0.15,0.36,0.57,0.61,0.63c0.18,0.04,0.38-0.1,0.54-0.14c0.18-0.04,0.4,0.01,0.57-0.05c0.22-0.08,0.13-0.34,0.29-0.45
				c0.1-0.07,0.29-0.01,0.41-0.05c0.2-0.07,0.34-0.26,0.38-0.46c0.02-0.08,0.01-0.14,0.04-0.22c0.04-0.1,0.11-0.16,0.09-0.29
				c-0.01-0.06-0.05-0.12-0.06-0.19c-0.02-0.11,0-0.22,0-0.34c0-0.2,0.02-0.38-0.08-0.55c-0.38-0.69-1.24-0.93-1.97-0.79
				c-0.18,0.03-0.29,0.13-0.44,0.21c-0.17,0.09-0.14,0.17-0.32,0.22c-0.08,0.03-0.22,0.12-0.21,0.22c0,0.12,0,0.05,0.01,0.17
				c-0.02,0.01-0.02,0-0.03-0.03"/>
			<path class="st2" d="M0.44-71.65c0.02,0.07,0.01,0.13-0.03,0.19c-0.05,0.1-0.11,0.06-0.17,0.13c-0.05,0.06-0.1,0.28-0.08,0.36
				C0-70.92,0.16-70.75,0.15-70.62c0,0.05-0.04,0.11-0.04,0.16c-0.01,0.12,0.02,0.27,0.07,0.37c0.1,0.2,0.27,0.41,0.44,0.54
				c0.19,0.15,0.36,0.57,0.61,0.63c0.18,0.04,0.38-0.1,0.54-0.14c0.18-0.04,0.4,0.01,0.57-0.05c0.22-0.08,0.13-0.34,0.29-0.45
				c0.1-0.07,0.29-0.01,0.41-0.05c0.2-0.07,0.34-0.26,0.38-0.46c0.02-0.08,0.01-0.14,0.04-0.22c0.04-0.1,0.11-0.16,0.09-0.29
				c-0.01-0.06-0.05-0.12-0.06-0.19c-0.02-0.11,0-0.22,0-0.34c0-0.2,0.02-0.38-0.08-0.55c-0.38-0.69-1.24-0.93-1.97-0.79
				c-0.18,0.03-0.29,0.13-0.44,0.21c-0.17,0.09-0.14,0.17-0.32,0.22c-0.08,0.03-0.22,0.12-0.21,0.22c0,0.12,0,0.05,0.01,0.17
				c-0.02,0.01-0.02,0-0.03-0.03"/>
		</g>
		<g>
			<path class="st2" d="M69.44-71.65c0.02,0.07,0.01,0.13-0.03,0.19c-0.05,0.1-0.11,0.06-0.17,0.13c-0.05,0.06-0.1,0.28-0.08,0.36
				c-0.17,0.06-0.01,0.23-0.02,0.35c0,0.05-0.04,0.11-0.04,0.16c-0.01,0.12,0.02,0.27,0.07,0.37c0.1,0.2,0.27,0.41,0.43,0.54
				c0.19,0.15,0.36,0.57,0.61,0.63c0.18,0.04,0.38-0.1,0.54-0.14c0.18-0.04,0.4,0.01,0.57-0.05c0.22-0.08,0.13-0.34,0.29-0.45
				c0.1-0.07,0.29-0.01,0.41-0.05c0.2-0.07,0.34-0.26,0.38-0.46c0.02-0.08,0.01-0.14,0.04-0.22c0.04-0.1,0.11-0.16,0.09-0.29
				c-0.01-0.06-0.05-0.12-0.06-0.19c-0.02-0.11,0-0.22,0-0.34c0-0.2,0.02-0.38-0.08-0.55c-0.38-0.69-1.24-0.93-1.97-0.79
				c-0.18,0.03-0.29,0.13-0.44,0.21c-0.17,0.09-0.14,0.17-0.32,0.22c-0.08,0.03-0.22,0.12-0.21,0.22c0,0.12,0,0.05,0.01,0.17
				c-0.02,0.01-0.02,0-0.03-0.03"/>
		</g>
		<path class="st2" d="M0.5-71.65c0.02,0.07,0.01,0.13-0.03,0.19c-0.05,0.1-0.11,0.06-0.17,0.13c-0.05,0.06-0.1,0.28-0.08,0.36
			c-0.17,0.06-0.01,0.23-0.02,0.35c0,0.05-0.04,0.11-0.04,0.16c-0.01,0.12,0.02,0.27,0.07,0.37c0.1,0.2,0.27,0.41,0.44,0.54
			c0.19,0.15,0.36,0.57,0.61,0.63c0.18,0.04,0.38-0.1,0.54-0.14c0.18-0.04,0.4,0.01,0.57-0.05c0.22-0.08,0.13-0.34,0.29-0.45
			c0.1-0.07,0.29-0.01,0.41-0.05c0.2-0.07,0.34-0.26,0.38-0.46c0.02-0.08,0.01-0.14,0.04-0.22c0.04-0.1,0.11-0.16,0.09-0.29
			c-0.01-0.06-0.05-0.12-0.06-0.19c-0.02-0.11,0-0.22,0-0.34c0-0.2,0.02-0.38-0.08-0.55c-0.38-0.69-1.24-0.93-1.97-0.79
			c-0.18,0.03-0.29,0.13-0.44,0.21c-0.17,0.09-0.14,0.17-0.32,0.22c-0.08,0.03-0.22,0.12-0.21,0.22c0,0.12,0,0.05,0.01,0.17
			c-0.02,0.01-0.02,0-0.03-0.03"/>
		<g>
			<g>
				<path class="st2" d="M69.44-64c0.02,0.07,0.01,0.13-0.03,0.19c-0.05,0.1-0.11,0.06-0.17,0.13c-0.05,0.06-0.1,0.28-0.08,0.36
					c-0.17,0.06-0.01,0.23-0.02,0.35c0,0.05-0.04,0.11-0.04,0.16c-0.01,0.12,0.02,0.27,0.07,0.37c0.1,0.2,0.27,0.41,0.43,0.54
					c0.19,0.15,0.36,0.57,0.61,0.63c0.18,0.04,0.38-0.1,0.54-0.14c0.18-0.04,0.4,0.01,0.57-0.05c0.22-0.08,0.13-0.34,0.29-0.45
					c0.1-0.07,0.29-0.01,0.41-0.05c0.2-0.07,0.34-0.26,0.38-0.46c0.02-0.08,0.01-0.14,0.04-0.22c0.04-0.1,0.11-0.16,0.09-0.29
					c-0.01-0.06-0.05-0.12-0.06-0.19c-0.02-0.11,0-0.22,0-0.34c0-0.2,0.02-0.38-0.08-0.55c-0.38-0.69-1.24-0.93-1.97-0.79
					c-0.18,0.03-0.29,0.13-0.44,0.21c-0.17,0.09-0.14,0.17-0.32,0.22c-0.08,0.03-0.22,0.12-0.21,0.22c0,0.12,0,0.05,0.01,0.17
					c-0.02,0.01-0.02,0-0.03-0.03"/>
				<path class="st2" d="M61.78-64c0.02,0.07,0.01,0.13-0.03,0.19c-0.05,0.1-0.11,0.06-0.17,0.13c-0.05,0.06-0.1,0.28-0.08,0.36
					c-0.17,0.06-0.01,0.23-0.02,0.35c0,0.05-0.04,0.11-0.04,0.16c-0.01,0.12,0.02,0.27,0.07,0.37c0.1,0.2,0.27,0.41,0.44,0.54
					c0.19,0.15,0.36,0.57,0.61,0.63c0.18,0.04,0.38-0.1,0.54-0.14c0.18-0.04,0.4,0.01,0.57-0.05c0.22-0.08,0.13-0.34,0.29-0.45
					c0.1-0.07,0.29-0.01,0.41-0.05c0.2-0.07,0.34-0.26,0.38-0.46c0.02-0.08,0.01-0.14,0.04-0.22c0.04-0.1,0.11-0.16,0.09-0.29
					c-0.01-0.06-0.05-0.12-0.06-0.19c-0.02-0.11,0-0.22,0-0.34c0-0.2,0.02-0.38-0.08-0.55c-0.38-0.69-1.24-0.93-1.97-0.79
					c-0.18,0.03-0.29,0.13-0.44,0.21c-0.17,0.09-0.14,0.17-0.32,0.22c-0.08,0.03-0.22,0.12-0.21,0.22c0,0.12,0,0.05,0.01,0.17
					c-0.02,0.01-0.02,0-0.03-0.03"/>
				<path class="st2" d="M54.12-64c0.02,0.07,0.01,0.13-0.03,0.19c-0.05,0.1-0.11,0.06-0.17,0.13c-0.05,0.06-0.1,0.28-0.08,0.36
					c-0.17,0.06-0.01,0.23-0.02,0.35c0,0.05-0.04,0.11-0.04,0.16c-0.01,0.12,0.02,0.27,0.07,0.37c0.1,0.2,0.27,0.41,0.44,0.54
					c0.19,0.15,0.36,0.57,0.61,0.63c0.18,0.04,0.38-0.1,0.54-0.14c0.18-0.04,0.4,0.01,0.57-0.05c0.22-0.08,0.13-0.34,0.29-0.45
					c0.1-0.07,0.29-0.01,0.41-0.05c0.2-0.07,0.34-0.26,0.38-0.46c0.02-0.08,0.01-0.14,0.04-0.22c0.04-0.1,0.11-0.16,0.09-0.29
					c-0.01-0.06-0.05-0.12-0.06-0.19c-0.02-0.11,0-0.22,0-0.34c0-0.2,0.02-0.38-0.08-0.55c-0.38-0.69-1.24-0.93-1.97-0.79
					c-0.18,0.03-0.29,0.13-0.44,0.21c-0.17,0.09-0.14,0.17-0.32,0.22c-0.08,0.03-0.22,0.12-0.21,0.22c0,0.12,0,0.05,0.01,0.17
					c-0.02,0.01-0.02,0-0.03-0.03"/>
				<path class="st2" d="M46.46-64c0.02,0.07,0.01,0.13-0.03,0.19c-0.05,0.1-0.11,0.06-0.16,0.13c-0.05,0.06-0.1,0.28-0.08,0.36
					c-0.17,0.06-0.01,0.23-0.02,0.35c0,0.05-0.04,0.11-0.05,0.16c-0.01,0.12,0.02,0.27,0.07,0.37c0.1,0.2,0.27,0.41,0.44,0.54
					c0.19,0.15,0.36,0.57,0.61,0.63c0.18,0.04,0.38-0.1,0.54-0.14c0.18-0.04,0.4,0.01,0.57-0.05c0.22-0.08,0.13-0.34,0.29-0.45
					c0.1-0.07,0.29-0.01,0.41-0.05c0.2-0.07,0.34-0.26,0.38-0.46c0.02-0.08,0.01-0.14,0.04-0.22c0.04-0.1,0.11-0.16,0.09-0.29
					c-0.01-0.06-0.05-0.12-0.06-0.19c-0.02-0.11,0-0.22,0-0.34c0-0.2,0.02-0.38-0.08-0.55c-0.38-0.69-1.24-0.93-1.97-0.79
					c-0.18,0.03-0.29,0.13-0.44,0.21c-0.17,0.09-0.14,0.17-0.32,0.22c-0.08,0.03-0.22,0.12-0.21,0.22c0,0.12,0,0.05,0.01,0.17
					c-0.02,0.01-0.02,0-0.03-0.03"/>
				<path class="st2" d="M38.8-64c0.02,0.07,0.01,0.13-0.03,0.19c-0.05,0.1-0.11,0.06-0.17,0.13c-0.05,0.06-0.1,0.28-0.08,0.36
					c-0.17,0.06-0.01,0.23-0.02,0.35c0,0.05-0.04,0.11-0.04,0.16c-0.01,0.12,0.02,0.27,0.07,0.37c0.1,0.2,0.27,0.41,0.44,0.54
					c0.19,0.15,0.36,0.57,0.61,0.63c0.18,0.04,0.38-0.1,0.54-0.14c0.18-0.04,0.4,0.01,0.57-0.05c0.22-0.08,0.13-0.34,0.29-0.45
					c0.1-0.07,0.29-0.01,0.41-0.05c0.2-0.07,0.34-0.26,0.38-0.46c0.02-0.08,0.01-0.14,0.04-0.22c0.04-0.1,0.11-0.16,0.09-0.29
					c-0.01-0.06-0.05-0.12-0.06-0.19c-0.02-0.11,0-0.22,0-0.34c0-0.2,0.02-0.38-0.08-0.55c-0.38-0.69-1.24-0.93-1.97-0.79
					c-0.18,0.03-0.29,0.13-0.44,0.21c-0.17,0.09-0.14,0.17-0.32,0.22c-0.08,0.03-0.22,0.12-0.21,0.22c0,0.12,0,0.05,0.01,0.17
					c-0.02,0.01-0.02,0-0.03-0.03"/>
				<path class="st2" d="M31.14-64c0.02,0.07,0.01,0.13-0.03,0.19c-0.05,0.1-0.11,0.06-0.16,0.13c-0.05,0.06-0.1,0.28-0.08,0.36
					c-0.17,0.06-0.01,0.23-0.02,0.35c0,0.05-0.04,0.11-0.05,0.16c-0.01,0.12,0.02,0.27,0.07,0.37c0.1,0.2,0.27,0.41,0.44,0.54
					c0.19,0.15,0.36,0.57,0.61,0.63c0.18,0.04,0.38-0.1,0.54-0.14c0.18-0.04,0.4,0.01,0.57-0.05c0.22-0.08,0.13-0.34,0.29-0.45
					c0.1-0.07,0.29-0.01,0.41-0.05c0.2-0.07,0.34-0.26,0.38-0.46c0.02-0.08,0.01-0.14,0.04-0.22c0.04-0.1,0.11-0.16,0.09-0.29
					c-0.01-0.06-0.05-0.12-0.06-0.19c-0.02-0.11,0-0.22,0-0.34c0-0.2,0.02-0.38-0.08-0.55c-0.38-0.69-1.24-0.93-1.97-0.79
					c-0.18,0.03-0.29,0.13-0.44,0.21c-0.17,0.09-0.14,0.17-0.32,0.22c-0.08,0.03-0.22,0.12-0.21,0.22c0,0.12,0,0.05,0.01,0.17
					c-0.02,0.01-0.02,0-0.03-0.03"/>
				<path class="st2" d="M23.48-64c0.02,0.07,0.01,0.13-0.03,0.19c-0.05,0.1-0.11,0.06-0.17,0.13c-0.05,0.06-0.1,0.28-0.08,0.36
					c-0.17,0.06-0.01,0.23-0.02,0.35c0,0.05-0.04,0.11-0.04,0.16c-0.01,0.12,0.02,0.27,0.07,0.37c0.1,0.2,0.27,0.41,0.44,0.54
					c0.19,0.15,0.36,0.57,0.61,0.63c0.18,0.04,0.38-0.1,0.54-0.14c0.18-0.04,0.4,0.01,0.57-0.05c0.22-0.08,0.13-0.34,0.29-0.45
					c0.1-0.07,0.29-0.01,0.41-0.05c0.2-0.07,0.34-0.26,0.38-0.46c0.02-0.08,0.01-0.14,0.04-0.22c0.04-0.1,0.11-0.16,0.09-0.29
					c-0.01-0.06-0.05-0.12-0.06-0.19c-0.02-0.11,0-0.22,0-0.34c0-0.2,0.02-0.38-0.08-0.55c-0.38-0.69-1.24-0.93-1.97-0.79
					c-0.18,0.03-0.29,0.13-0.44,0.21c-0.17,0.09-0.14,0.17-0.32,0.22c-0.08,0.03-0.22,0.12-0.21,0.22c0,0.12,0,0.05,0.01,0.17
					c-0.02,0.01-0.02,0-0.03-0.03"/>
				<path class="st2" d="M15.82-64c0.02,0.07,0.01,0.13-0.03,0.19c-0.05,0.1-0.11,0.06-0.16,0.13c-0.05,0.06-0.1,0.28-0.08,0.36
					c-0.17,0.06-0.01,0.23-0.02,0.35c0,0.05-0.04,0.11-0.05,0.16c-0.01,0.12,0.02,0.27,0.07,0.37c0.1,0.2,0.27,0.41,0.44,0.54
					c0.19,0.15,0.36,0.57,0.61,0.63c0.18,0.04,0.38-0.1,0.54-0.14c0.18-0.04,0.4,0.01,0.57-0.05c0.22-0.08,0.13-0.34,0.29-0.45
					c0.1-0.07,0.29-0.01,0.41-0.05c0.2-0.07,0.34-0.26,0.38-0.46c0.02-0.08,0.01-0.14,0.04-0.22c0.04-0.1,0.11-0.16,0.09-0.29
					c-0.01-0.06-0.05-0.12-0.06-0.19c-0.02-0.11,0-0.22,0-0.34c0-0.2,0.02-0.38-0.08-0.55c-0.38-0.69-1.24-0.93-1.97-0.79
					c-0.18,0.03-0.29,0.13-0.44,0.21c-0.17,0.09-0.14,0.17-0.32,0.22c-0.08,0.03-0.22,0.12-0.21,0.22c0,0.12,0,0.05,0.01,0.17
					c-0.02,0.01-0.02,0-0.03-0.03"/>
				<path class="st2" d="M8.16-64c0.02,0.07,0.01,0.13-0.03,0.19c-0.05,0.1-0.11,0.06-0.17,0.13c-0.05,0.06-0.1,0.28-0.08,0.36
					c-0.17,0.06-0.01,0.23-0.02,0.35c0,0.05-0.04,0.11-0.04,0.16c-0.01,0.12,0.02,0.27,0.07,0.37c0.1,0.2,0.27,0.41,0.44,0.54
					c0.19,0.15,0.36,0.57,0.61,0.63c0.18,0.04,0.38-0.1,0.54-0.14c0.18-0.04,0.4,0.01,0.57-0.05c0.22-0.08,0.13-0.34,0.29-0.45
					c0.1-0.07,0.29-0.01,0.41-0.05c0.2-0.07,0.34-0.26,0.38-0.46c0.02-0.08,0.01-0.14,0.04-0.22c0.04-0.1,0.11-0.16,0.09-0.29
					c-0.01-0.06-0.05-0.12-0.06-0.19c-0.02-0.11,0-0.22,0-0.34c0-0.2,0.02-0.38-0.08-0.55c-0.38-0.69-1.24-0.93-1.97-0.79
					c-0.18,0.03-0.29,0.13-0.44,0.21c-0.17,0.09-0.14,0.17-0.32,0.22c-0.08,0.03-0.22,0.12-0.21,0.22c0,0.12,0,0.05,0.01,0.17
					c-0.02,0.01-0.02,0-0.03-0.03"/>
				<path class="st2" d="M0.5-64c0.02,0.07,0.01,0.13-0.03,0.19c-0.05,0.1-0.11,0.06-0.17,0.13c-0.05,0.06-0.1,0.28-0.08,0.36
					c-0.17,0.06-0.01,0.23-0.02,0.35c0,0.05-0.04,0.11-0.04,0.16c-0.01,0.12,0.02,0.27,0.07,0.37c0.1,0.2,0.27,0.41,0.44,0.54
					c0.19,0.15,0.36,0.57,0.61,0.63c0.18,0.04,0.38-0.1,0.54-0.14c0.18-0.04,0.4,0.01,0.57-0.05c0.22-0.08,0.13-0.34,0.29-0.45
					c0.1-0.07,0.29-0.01,0.41-0.05c0.2-0.07,0.34-0.26,0.38-0.46c0.02-0.08,0.01-0.14,0.04-0.22c0.04-0.1,0.11-0.16,0.09-0.29
					C3.58-63,3.54-63.05,3.53-63.12c-0.02-0.11,0-0.22,0-0.34c0-0.2,0.02-0.38-0.08-0.55c-0.38-0.69-1.24-0.93-1.97-0.79
					c-0.18,0.03-0.29,0.13-0.44,0.21c-0.17,0.09-0.14,0.17-0.32,0.22c-0.08,0.03-0.22,0.12-0.21,0.22c0,0.12,0,0.05,0.01,0.17
					c-0.02,0.01-0.02,0-0.03-0.03"/>
			</g>
			<g>
				<path class="st2" d="M69.44-56.35c0.02,0.07,0.01,0.13-0.03,0.19c-0.05,0.1-0.11,0.06-0.17,0.13c-0.05,0.06-0.1,0.28-0.08,0.36
					c-0.17,0.06-0.01,0.23-0.02,0.35c0,0.05-0.04,0.11-0.04,0.16c-0.01,0.12,0.02,0.27,0.07,0.37c0.1,0.2,0.27,0.41,0.43,0.54
					c0.19,0.15,0.36,0.57,0.61,0.63c0.18,0.04,0.38-0.1,0.54-0.14c0.18-0.04,0.4,0.01,0.57-0.05c0.22-0.08,0.13-0.34,0.29-0.45
					c0.1-0.07,0.29-0.01,0.41-0.05c0.2-0.07,0.34-0.26,0.38-0.46c0.02-0.08,0.01-0.14,0.04-0.22c0.04-0.1,0.11-0.16,0.09-0.29
					c-0.01-0.06-0.05-0.12-0.06-0.19c-0.02-0.11,0-0.22,0-0.34c0-0.2,0.02-0.38-0.08-0.55c-0.38-0.69-1.24-0.93-1.97-0.79
					c-0.18,0.03-0.29,0.13-0.44,0.21c-0.17,0.09-0.14,0.17-0.32,0.22c-0.08,0.03-0.22,0.12-0.21,0.22c0,0.12,0,0.05,0.01,0.17
					c-0.02,0.01-0.02,0-0.03-0.03"/>
				<path class="st2" d="M61.78-56.35c0.02,0.07,0.01,0.13-0.03,0.19c-0.05,0.1-0.11,0.06-0.17,0.13c-0.05,0.06-0.1,0.28-0.08,0.36
					c-0.17,0.06-0.01,0.23-0.02,0.35c0,0.05-0.04,0.11-0.04,0.16c-0.01,0.12,0.02,0.27,0.07,0.37c0.1,0.2,0.27,0.41,0.44,0.54
					c0.19,0.15,0.36,0.57,0.61,0.63c0.18,0.04,0.38-0.1,0.54-0.14c0.18-0.04,0.4,0.01,0.57-0.05c0.22-0.08,0.13-0.34,0.29-0.45
					c0.1-0.07,0.29-0.01,0.41-0.05c0.2-0.07,0.34-0.26,0.38-0.46c0.02-0.08,0.01-0.14,0.04-0.22c0.04-0.1,0.11-0.16,0.09-0.29
					c-0.01-0.06-0.05-0.12-0.06-0.19c-0.02-0.11,0-0.22,0-0.34c0-0.2,0.02-0.38-0.08-0.55c-0.38-0.69-1.24-0.93-1.97-0.79
					c-0.18,0.03-0.29,0.13-0.44,0.21c-0.17,0.09-0.14,0.17-0.32,0.22c-0.08,0.03-0.22,0.12-0.21,0.22c0,0.12,0,0.05,0.01,0.17
					c-0.02,0.01-0.02,0-0.03-0.03"/>
				<path class="st2" d="M54.12-56.35c0.02,0.07,0.01,0.13-0.03,0.19c-0.05,0.1-0.11,0.06-0.17,0.13c-0.05,0.06-0.1,0.28-0.08,0.36
					c-0.17,0.06-0.01,0.23-0.02,0.35c0,0.05-0.04,0.11-0.04,0.16c-0.01,0.12,0.02,0.27,0.07,0.37c0.1,0.2,0.27,0.41,0.44,0.54
					c0.19,0.15,0.36,0.57,0.61,0.63c0.18,0.04,0.38-0.1,0.54-0.14c0.18-0.04,0.4,0.01,0.57-0.05c0.22-0.08,0.13-0.34,0.29-0.45
					c0.1-0.07,0.29-0.01,0.41-0.05c0.2-0.07,0.34-0.26,0.38-0.46c0.02-0.08,0.01-0.14,0.04-0.22c0.04-0.1,0.11-0.16,0.09-0.29
					c-0.01-0.06-0.05-0.12-0.06-0.19c-0.02-0.11,0-0.22,0-0.34c0-0.2,0.02-0.38-0.08-0.55c-0.38-0.69-1.24-0.93-1.97-0.79
					c-0.18,0.03-0.29,0.13-0.44,0.21c-0.17,0.09-0.14,0.17-0.32,0.22c-0.08,0.03-0.22,0.12-0.21,0.22c0,0.12,0,0.05,0.01,0.17
					c-0.02,0.01-0.02,0-0.03-0.03"/>
				<path class="st2" d="M46.46-56.35c0.02,0.07,0.01,0.13-0.03,0.19c-0.05,0.1-0.11,0.06-0.16,0.13c-0.05,0.06-0.1,0.28-0.08,0.36
					c-0.17,0.06-0.01,0.23-0.02,0.35c0,0.05-0.04,0.11-0.05,0.16c-0.01,0.12,0.02,0.27,0.07,0.37c0.1,0.2,0.27,0.41,0.44,0.54
					c0.19,0.15,0.36,0.57,0.61,0.63c0.18,0.04,0.38-0.1,0.54-0.14c0.18-0.04,0.4,0.01,0.57-0.05c0.22-0.08,0.13-0.34,0.29-0.45
					c0.1-0.07,0.29-0.01,0.41-0.05c0.2-0.07,0.34-0.26,0.38-0.46c0.02-0.08,0.01-0.14,0.04-0.22c0.04-0.1,0.11-0.16,0.09-0.29
					c-0.01-0.06-0.05-0.12-0.06-0.19c-0.02-0.11,0-0.22,0-0.34c0-0.2,0.02-0.38-0.08-0.55c-0.38-0.69-1.24-0.93-1.97-0.79
					c-0.18,0.03-0.29,0.13-0.44,0.21c-0.17,0.09-0.14,0.17-0.32,0.22c-0.08,0.03-0.22,0.12-0.21,0.22c0,0.12,0,0.05,0.01,0.17
					c-0.02,0.01-0.02,0-0.03-0.03"/>
				<path class="st2" d="M38.8-56.35c0.02,0.07,0.01,0.13-0.03,0.19c-0.05,0.1-0.11,0.06-0.17,0.13c-0.05,0.06-0.1,0.28-0.08,0.36
					c-0.17,0.06-0.01,0.23-0.02,0.35c0,0.05-0.04,0.11-0.04,0.16c-0.01,0.12,0.02,0.27,0.07,0.37c0.1,0.2,0.27,0.41,0.44,0.54
					c0.19,0.15,0.36,0.57,0.61,0.63c0.18,0.04,0.38-0.1,0.54-0.14c0.18-0.04,0.4,0.01,0.57-0.05c0.22-0.08,0.13-0.34,0.29-0.45
					c0.1-0.07,0.29-0.01,0.41-0.05c0.2-0.07,0.34-0.26,0.38-0.46c0.02-0.08,0.01-0.14,0.04-0.22c0.04-0.1,0.11-0.16,0.09-0.29
					c-0.01-0.06-0.05-0.12-0.06-0.19c-0.02-0.11,0-0.22,0-0.34c0-0.2,0.02-0.38-0.08-0.55c-0.38-0.69-1.24-0.93-1.97-0.79
					c-0.18,0.03-0.29,0.13-0.44,0.21c-0.17,0.09-0.14,0.17-0.32,0.22c-0.08,0.03-0.22,0.12-0.21,0.22c0,0.12,0,0.05,0.01,0.17
					c-0.02,0.01-0.02,0-0.03-0.03"/>
				<path class="st2" d="M31.14-56.35c0.02,0.07,0.01,0.13-0.03,0.19c-0.05,0.1-0.11,0.06-0.16,0.13c-0.05,0.06-0.1,0.28-0.08,0.36
					c-0.17,0.06-0.01,0.23-0.02,0.35c0,0.05-0.04,0.11-0.05,0.16c-0.01,0.12,0.02,0.27,0.07,0.37c0.1,0.2,0.27,0.41,0.44,0.54
					c0.19,0.15,0.36,0.57,0.61,0.63c0.18,0.04,0.38-0.1,0.54-0.14c0.18-0.04,0.4,0.01,0.57-0.05c0.22-0.08,0.13-0.34,0.29-0.45
					c0.1-0.07,0.29-0.01,0.41-0.05c0.2-0.07,0.34-0.26,0.38-0.46c0.02-0.08,0.01-0.14,0.04-0.22c0.04-0.1,0.11-0.16,0.09-0.29
					c-0.01-0.06-0.05-0.12-0.06-0.19c-0.02-0.11,0-0.22,0-0.34c0-0.2,0.02-0.38-0.08-0.55c-0.38-0.69-1.24-0.93-1.97-0.79
					c-0.18,0.03-0.29,0.13-0.44,0.21c-0.17,0.09-0.14,0.17-0.32,0.22c-0.08,0.03-0.22,0.12-0.21,0.22c0,0.12,0,0.05,0.01,0.17
					c-0.02,0.01-0.02,0-0.03-0.03"/>
				<path class="st2" d="M23.48-56.35c0.02,0.07,0.01,0.13-0.03,0.19c-0.05,0.1-0.11,0.06-0.17,0.13c-0.05,0.06-0.1,0.28-0.08,0.36
					c-0.17,0.06-0.01,0.23-0.02,0.35c0,0.05-0.04,0.11-0.04,0.16c-0.01,0.12,0.02,0.27,0.07,0.37c0.1,0.2,0.27,0.41,0.44,0.54
					c0.19,0.15,0.36,0.57,0.61,0.63c0.18,0.04,0.38-0.1,0.54-0.14c0.18-0.04,0.4,0.01,0.57-0.05c0.22-0.08,0.13-0.34,0.29-0.45
					c0.1-0.07,0.29-0.01,0.41-0.05c0.2-0.07,0.34-0.26,0.38-0.46c0.02-0.08,0.01-0.14,0.04-0.22c0.04-0.1,0.11-0.16,0.09-0.29
					c-0.01-0.06-0.05-0.12-0.06-0.19c-0.02-0.11,0-0.22,0-0.34c0-0.2,0.02-0.38-0.08-0.55c-0.38-0.69-1.24-0.93-1.97-0.79
					c-0.18,0.03-0.29,0.13-0.44,0.21c-0.17,0.09-0.14,0.17-0.32,0.22c-0.08,0.03-0.22,0.12-0.21,0.22c0,0.12,0,0.05,0.01,0.17
					c-0.02,0.01-0.02,0-0.03-0.03"/>
				<path class="st2" d="M15.82-56.35c0.02,0.07,0.01,0.13-0.03,0.19c-0.05,0.1-0.11,0.06-0.16,0.13c-0.05,0.06-0.1,0.28-0.08,0.36
					c-0.17,0.06-0.01,0.23-0.02,0.35c0,0.05-0.04,0.11-0.05,0.16c-0.01,0.12,0.02,0.27,0.07,0.37c0.1,0.2,0.27,0.41,0.44,0.54
					c0.19,0.15,0.36,0.57,0.61,0.63c0.18,0.04,0.38-0.1,0.54-0.14c0.18-0.04,0.4,0.01,0.57-0.05c0.22-0.08,0.13-0.34,0.29-0.45
					c0.1-0.07,0.29-0.01,0.41-0.05c0.2-0.07,0.34-0.26,0.38-0.46c0.02-0.08,0.01-0.14,0.04-0.22c0.04-0.1,0.11-0.16,0.09-0.29
					c-0.01-0.06-0.05-0.12-0.06-0.19c-0.02-0.11,0-0.22,0-0.34c0-0.2,0.02-0.38-0.08-0.55c-0.38-0.69-1.24-0.93-1.97-0.79
					c-0.18,0.03-0.29,0.13-0.44,0.21c-0.17,0.09-0.14,0.17-0.32,0.22c-0.08,0.03-0.22,0.12-0.21,0.22c0,0.12,0,0.05,0.01,0.17
					c-0.02,0.01-0.02,0-0.03-0.03"/>
				<path class="st2" d="M8.16-56.35c0.02,0.07,0.01,0.13-0.03,0.19c-0.05,0.1-0.11,0.06-0.17,0.13c-0.05,0.06-0.1,0.28-0.08,0.36
					c-0.17,0.06-0.01,0.23-0.02,0.35c0,0.05-0.04,0.11-0.04,0.16c-0.01,0.12,0.02,0.27,0.07,0.37c0.1,0.2,0.27,0.41,0.44,0.54
					c0.19,0.15,0.36,0.57,0.61,0.63c0.18,0.04,0.38-0.1,0.54-0.14c0.18-0.04,0.4,0.01,0.57-0.05c0.22-0.08,0.13-0.34,0.29-0.45
					c0.1-0.07,0.29-0.01,0.41-0.05c0.2-0.07,0.34-0.26,0.38-0.46c0.02-0.08,0.01-0.14,0.04-0.22c0.04-0.1,0.11-0.16,0.09-0.29
					c-0.01-0.06-0.05-0.12-0.06-0.19c-0.02-0.11,0-0.22,0-0.34c0-0.2,0.02-0.38-0.08-0.55c-0.38-0.69-1.24-0.93-1.97-0.79
					c-0.18,0.03-0.29,0.13-0.44,0.21c-0.17,0.09-0.14,0.17-0.32,0.22c-0.08,0.03-0.22,0.12-0.21,0.22c0,0.12,0,0.05,0.01,0.17
					c-0.02,0.01-0.02,0-0.03-0.03"/>
				<path class="st2" d="M0.5-56.35c0.02,0.07,0.01,0.13-0.03,0.19c-0.05,0.1-0.11,0.06-0.17,0.13c-0.05,0.06-0.1,0.28-0.08,0.36
					c-0.17,0.06-0.01,0.23-0.02,0.35c0,0.05-0.04,0.11-0.04,0.16c-0.01,0.12,0.02,0.27,0.07,0.37c0.1,0.2,0.27,0.41,0.44,0.54
					c0.19,0.15,0.36,0.57,0.61,0.63c0.18,0.04,0.38-0.1,0.54-0.14c0.18-0.04,0.4,0.01,0.57-0.05c0.22-0.08,0.13-0.34,0.29-0.45
					c0.1-0.07,0.29-0.01,0.41-0.05c0.2-0.07,0.34-0.26,0.38-0.46c0.02-0.08,0.01-0.14,0.04-0.22c0.04-0.1,0.11-0.16,0.09-0.29
					c-0.01-0.06-0.05-0.12-0.06-0.19c-0.02-0.11,0-0.22,0-0.34c0-0.2,0.02-0.38-0.08-0.55c-0.38-0.69-1.24-0.93-1.97-0.79
					c-0.18,0.03-0.29,0.13-0.44,0.21c-0.17,0.09-0.14,0.17-0.32,0.22c-0.08,0.03-0.22,0.12-0.21,0.22c0,0.12,0,0.05,0.01,0.17
					c-0.02,0.01-0.02,0-0.03-0.03"/>
			</g>
			<g>
				<path class="st2" d="M69.44-48.7c0.02,0.07,0.01,0.13-0.03,0.19c-0.05,0.1-0.11,0.06-0.17,0.13c-0.05,0.06-0.1,0.28-0.08,0.36
					c-0.17,0.06-0.01,0.23-0.02,0.35c0,0.05-0.04,0.11-0.04,0.16c-0.01,0.12,0.02,0.27,0.07,0.37c0.1,0.2,0.27,0.41,0.43,0.54
					c0.19,0.15,0.36,0.57,0.61,0.63c0.18,0.04,0.38-0.1,0.54-0.14c0.18-0.04,0.4,0.01,0.57-0.05c0.22-0.08,0.13-0.34,0.29-0.45
					c0.1-0.07,0.29-0.01,0.41-0.05c0.2-0.07,0.34-0.26,0.38-0.46c0.02-0.08,0.01-0.14,0.04-0.22c0.04-0.1,0.11-0.16,0.09-0.29
					c-0.01-0.06-0.05-0.12-0.06-0.19c-0.02-0.11,0-0.22,0-0.34c0-0.2,0.02-0.38-0.08-0.55c-0.38-0.69-1.24-0.93-1.97-0.79
					c-0.18,0.03-0.29,0.13-0.44,0.21c-0.17,0.09-0.14,0.17-0.32,0.22c-0.08,0.03-0.22,0.12-0.21,0.22c0,0.12,0,0.05,0.01,0.17
					c-0.02,0.01-0.02,0-0.03-0.03"/>
				<path class="st2" d="M61.78-48.7c0.02,0.07,0.01,0.13-0.03,0.19c-0.05,0.1-0.11,0.06-0.17,0.13c-0.05,0.06-0.1,0.28-0.08,0.36
					c-0.17,0.06-0.01,0.23-0.02,0.35c0,0.05-0.04,0.11-0.04,0.16c-0.01,0.12,0.02,0.27,0.07,0.37c0.1,0.2,0.27,0.41,0.44,0.54
					c0.19,0.15,0.36,0.57,0.61,0.63c0.18,0.04,0.38-0.1,0.54-0.14c0.18-0.04,0.4,0.01,0.57-0.05c0.22-0.08,0.13-0.34,0.29-0.45
					c0.1-0.07,0.29-0.01,0.41-0.05c0.2-0.07,0.34-0.26,0.38-0.46c0.02-0.08,0.01-0.14,0.04-0.22c0.04-0.1,0.11-0.16,0.09-0.29
					c-0.01-0.06-0.05-0.12-0.06-0.19c-0.02-0.11,0-0.22,0-0.34c0-0.2,0.02-0.38-0.08-0.55c-0.38-0.69-1.24-0.93-1.97-0.79
					c-0.18,0.03-0.29,0.13-0.44,0.21c-0.17,0.09-0.14,0.17-0.32,0.22c-0.08,0.03-0.22,0.12-0.21,0.22c0,0.12,0,0.05,0.01,0.17
					c-0.02,0.01-0.02,0-0.03-0.03"/>
				<path class="st2" d="M54.12-48.7c0.02,0.07,0.01,0.13-0.03,0.19c-0.05,0.1-0.11,0.06-0.17,0.13c-0.05,0.06-0.1,0.28-0.08,0.36
					c-0.17,0.06-0.01,0.23-0.02,0.35c0,0.05-0.04,0.11-0.04,0.16c-0.01,0.12,0.02,0.27,0.07,0.37c0.1,0.2,0.27,0.41,0.44,0.54
					c0.19,0.15,0.36,0.57,0.61,0.63c0.18,0.04,0.38-0.1,0.54-0.14c0.18-0.04,0.4,0.01,0.57-0.05c0.22-0.08,0.13-0.34,0.29-0.45
					c0.1-0.07,0.29-0.01,0.41-0.05c0.2-0.07,0.34-0.26,0.38-0.46c0.02-0.08,0.01-0.14,0.04-0.22c0.04-0.1,0.11-0.16,0.09-0.29
					c-0.01-0.06-0.05-0.12-0.06-0.19c-0.02-0.11,0-0.22,0-0.34c0-0.2,0.02-0.38-0.08-0.55c-0.38-0.69-1.24-0.93-1.97-0.79
					c-0.18,0.03-0.29,0.13-0.44,0.21c-0.17,0.09-0.14,0.17-0.32,0.22c-0.08,0.03-0.22,0.12-0.21,0.22c0,0.12,0,0.05,0.01,0.17
					c-0.02,0.01-0.02,0-0.03-0.03"/>
				<path class="st2" d="M46.46-48.7c0.02,0.07,0.01,0.13-0.03,0.19c-0.05,0.1-0.11,0.06-0.16,0.13c-0.05,0.06-0.1,0.28-0.08,0.36
					c-0.17,0.06-0.01,0.23-0.02,0.35c0,0.05-0.04,0.11-0.05,0.16c-0.01,0.12,0.02,0.27,0.07,0.37c0.1,0.2,0.27,0.41,0.44,0.54
					c0.19,0.15,0.36,0.57,0.61,0.63c0.18,0.04,0.38-0.1,0.54-0.14c0.18-0.04,0.4,0.01,0.57-0.05c0.22-0.08,0.13-0.34,0.29-0.45
					c0.1-0.07,0.29-0.01,0.41-0.05c0.2-0.07,0.34-0.26,0.38-0.46c0.02-0.08,0.01-0.14,0.04-0.22c0.04-0.1,0.11-0.16,0.09-0.29
					c-0.01-0.06-0.05-0.12-0.06-0.19c-0.02-0.11,0-0.22,0-0.34c0-0.2,0.02-0.38-0.08-0.55c-0.38-0.69-1.24-0.93-1.97-0.79
					c-0.18,0.03-0.29,0.13-0.44,0.21c-0.17,0.09-0.14,0.17-0.32,0.22c-0.08,0.03-0.22,0.12-0.21,0.22c0,0.12,0,0.05,0.01,0.17
					c-0.02,0.01-0.02,0-0.03-0.03"/>
				<path class="st2" d="M38.8-48.7c0.02,0.07,0.01,0.13-0.03,0.19c-0.05,0.1-0.11,0.06-0.17,0.13c-0.05,0.06-0.1,0.28-0.08,0.36
					c-0.17,0.06-0.01,0.23-0.02,0.35c0,0.05-0.04,0.11-0.04,0.16c-0.01,0.12,0.02,0.27,0.07,0.37c0.1,0.2,0.27,0.41,0.44,0.54
					c0.19,0.15,0.36,0.57,0.61,0.63c0.18,0.04,0.38-0.1,0.54-0.14c0.18-0.04,0.4,0.01,0.57-0.05c0.22-0.08,0.13-0.34,0.29-0.45
					c0.1-0.07,0.29-0.01,0.41-0.05c0.2-0.07,0.34-0.26,0.38-0.46c0.02-0.08,0.01-0.14,0.04-0.22c0.04-0.1,0.11-0.16,0.09-0.29
					c-0.01-0.06-0.05-0.12-0.06-0.19c-0.02-0.11,0-0.22,0-0.34c0-0.2,0.02-0.38-0.08-0.55c-0.38-0.69-1.24-0.93-1.97-0.79
					c-0.18,0.03-0.29,0.13-0.44,0.21c-0.17,0.09-0.14,0.17-0.32,0.22c-0.08,0.03-0.22,0.12-0.21,0.22c0,0.12,0,0.05,0.01,0.17
					c-0.02,0.01-0.02,0-0.03-0.03"/>
				<path class="st2" d="M31.14-48.7c0.02,0.07,0.01,0.13-0.03,0.19c-0.05,0.1-0.11,0.06-0.16,0.13c-0.05,0.06-0.1,0.28-0.08,0.36
					c-0.17,0.06-0.01,0.23-0.02,0.35c0,0.05-0.04,0.11-0.05,0.16c-0.01,0.12,0.02,0.27,0.07,0.37c0.1,0.2,0.27,0.41,0.44,0.54
					c0.19,0.15,0.36,0.57,0.61,0.63c0.18,0.04,0.38-0.1,0.54-0.14c0.18-0.04,0.4,0.01,0.57-0.05c0.22-0.08,0.13-0.34,0.29-0.45
					c0.1-0.07,0.29-0.01,0.41-0.05c0.2-0.07,0.34-0.26,0.38-0.46c0.02-0.08,0.01-0.14,0.04-0.22c0.04-0.1,0.11-0.16,0.09-0.29
					c-0.01-0.06-0.05-0.12-0.06-0.19c-0.02-0.11,0-0.22,0-0.34c0-0.2,0.02-0.38-0.08-0.55c-0.38-0.69-1.24-0.93-1.97-0.79
					c-0.18,0.03-0.29,0.13-0.44,0.21c-0.17,0.09-0.14,0.17-0.32,0.22c-0.08,0.03-0.22,0.12-0.21,0.22c0,0.12,0,0.05,0.01,0.17
					c-0.02,0.01-0.02,0-0.03-0.03"/>
				<path class="st2" d="M23.48-48.7c0.02,0.07,0.01,0.13-0.03,0.19c-0.05,0.1-0.11,0.06-0.17,0.13c-0.05,0.06-0.1,0.28-0.08,0.36
					c-0.17,0.06-0.01,0.23-0.02,0.35c0,0.05-0.04,0.11-0.04,0.16c-0.01,0.12,0.02,0.27,0.07,0.37c0.1,0.2,0.27,0.41,0.44,0.54
					c0.19,0.15,0.36,0.57,0.61,0.63c0.18,0.04,0.38-0.1,0.54-0.14c0.18-0.04,0.4,0.01,0.57-0.05c0.22-0.08,0.13-0.34,0.29-0.45
					c0.1-0.07,0.29-0.01,0.41-0.05c0.2-0.07,0.34-0.26,0.38-0.46c0.02-0.08,0.01-0.14,0.04-0.22c0.04-0.1,0.11-0.16,0.09-0.29
					c-0.01-0.06-0.05-0.12-0.06-0.19c-0.02-0.11,0-0.22,0-0.34c0-0.2,0.02-0.38-0.08-0.55c-0.38-0.69-1.24-0.93-1.97-0.79
					c-0.18,0.03-0.29,0.13-0.44,0.21c-0.17,0.09-0.14,0.17-0.32,0.22c-0.08,0.03-0.22,0.12-0.21,0.22c0,0.12,0,0.05,0.01,0.17
					c-0.02,0.01-0.02,0-0.03-0.03"/>
				<path class="st2" d="M15.82-48.7c0.02,0.07,0.01,0.13-0.03,0.19c-0.05,0.1-0.11,0.06-0.16,0.13c-0.05,0.06-0.1,0.28-0.08,0.36
					c-0.17,0.06-0.01,0.23-0.02,0.35c0,0.05-0.04,0.11-0.05,0.16c-0.01,0.12,0.02,0.27,0.07,0.37c0.1,0.2,0.27,0.41,0.44,0.54
					c0.19,0.15,0.36,0.57,0.61,0.63c0.18,0.04,0.38-0.1,0.54-0.14c0.18-0.04,0.4,0.01,0.57-0.05c0.22-0.08,0.13-0.34,0.29-0.45
					c0.1-0.07,0.29-0.01,0.41-0.05c0.2-0.07,0.34-0.26,0.38-0.46c0.02-0.08,0.01-0.14,0.04-0.22c0.04-0.1,0.11-0.16,0.09-0.29
					c-0.01-0.06-0.05-0.12-0.06-0.19c-0.02-0.11,0-0.22,0-0.34c0-0.2,0.02-0.38-0.08-0.55c-0.38-0.69-1.24-0.93-1.97-0.79
					c-0.18,0.03-0.29,0.13-0.44,0.21c-0.17,0.09-0.14,0.17-0.32,0.22c-0.08,0.03-0.22,0.12-0.21,0.22c0,0.12,0,0.05,0.01,0.17
					c-0.02,0.01-0.02,0-0.03-0.03"/>
				<path class="st2" d="M8.16-48.7c0.02,0.07,0.01,0.13-0.03,0.19c-0.05,0.1-0.11,0.06-0.17,0.13c-0.05,0.06-0.1,0.28-0.08,0.36
					c-0.17,0.06-0.01,0.23-0.02,0.35c0,0.05-0.04,0.11-0.04,0.16c-0.01,0.12,0.02,0.27,0.07,0.37c0.1,0.2,0.27,0.41,0.44,0.54
					c0.19,0.15,0.36,0.57,0.61,0.63c0.18,0.04,0.38-0.1,0.54-0.14c0.18-0.04,0.4,0.01,0.57-0.05c0.22-0.08,0.13-0.34,0.29-0.45
					c0.1-0.07,0.29-0.01,0.41-0.05c0.2-0.07,0.34-0.26,0.38-0.46c0.02-0.08,0.01-0.14,0.04-0.22c0.04-0.1,0.11-0.16,0.09-0.29
					c-0.01-0.06-0.05-0.12-0.06-0.19c-0.02-0.11,0-0.22,0-0.34c0-0.2,0.02-0.38-0.08-0.55c-0.38-0.69-1.24-0.93-1.97-0.79
					c-0.18,0.03-0.29,0.13-0.44,0.21c-0.17,0.09-0.14,0.17-0.32,0.22c-0.08,0.03-0.22,0.12-0.21,0.22c0,0.12,0,0.05,0.01,0.17
					c-0.02,0.01-0.02,0-0.03-0.03"/>
				<path class="st2" d="M0.5-48.7c0.02,0.07,0.01,0.13-0.03,0.19c-0.05,0.1-0.11,0.06-0.17,0.13c-0.05,0.06-0.1,0.28-0.08,0.36
					c-0.17,0.06-0.01,0.23-0.02,0.35c0,0.05-0.04,0.11-0.04,0.16c-0.01,0.12,0.02,0.27,0.07,0.37c0.1,0.2,0.27,0.41,0.44,0.54
					c0.19,0.15,0.36,0.57,0.61,0.63c0.18,0.04,0.38-0.1,0.54-0.14c0.18-0.04,0.4,0.01,0.57-0.05c0.22-0.08,0.13-0.34,0.29-0.45
					c0.1-0.07,0.29-0.01,0.41-0.05c0.2-0.07,0.34-0.26,0.38-0.46c0.02-0.08,0.01-0.14,0.04-0.22c0.04-0.1,0.11-0.16,0.09-0.29
					c-0.01-0.06-0.05-0.12-0.06-0.19c-0.02-0.11,0-0.22,0-0.34c0-0.2,0.02-0.38-0.08-0.55c-0.38-0.69-1.24-0.93-1.97-0.79
					c-0.18,0.03-0.29,0.13-0.44,0.21c-0.17,0.09-0.14,0.17-0.32,0.22c-0.08,0.03-0.22,0.12-0.21,0.22c0,0.12,0,0.05,0.01,0.17
					c-0.02,0.01-0.02,0-0.03-0.03"/>
			</g>
			<g>
				<path class="st2" d="M69.44-41.04c0.02,0.07,0.01,0.13-0.03,0.19c-0.05,0.1-0.11,0.06-0.17,0.13c-0.05,0.06-0.1,0.28-0.08,0.36
					c-0.17,0.06-0.01,0.23-0.02,0.35c0,0.05-0.04,0.11-0.04,0.16c-0.01,0.12,0.02,0.27,0.07,0.37c0.1,0.2,0.27,0.41,0.43,0.54
					c0.19,0.15,0.36,0.57,0.61,0.63c0.18,0.04,0.38-0.1,0.54-0.14c0.18-0.04,0.4,0.01,0.57-0.05c0.22-0.08,0.13-0.34,0.29-0.45
					c0.1-0.07,0.29-0.01,0.41-0.05c0.2-0.07,0.34-0.26,0.38-0.46c0.02-0.08,0.01-0.14,0.04-0.22c0.04-0.1,0.11-0.16,0.09-0.29
					c-0.01-0.06-0.05-0.12-0.06-0.19c-0.02-0.11,0-0.22,0-0.34c0-0.2,0.02-0.38-0.08-0.55c-0.38-0.69-1.24-0.93-1.97-0.79
					c-0.18,0.03-0.29,0.13-0.44,0.21c-0.17,0.09-0.14,0.17-0.32,0.22c-0.08,0.03-0.22,0.12-0.21,0.22c0,0.12,0,0.05,0.01,0.17
					c-0.02,0.01-0.02,0-0.03-0.03"/>
				<path class="st2" d="M61.78-41.04c0.02,0.07,0.01,0.13-0.03,0.19c-0.05,0.1-0.11,0.06-0.17,0.13c-0.05,0.06-0.1,0.28-0.08,0.36
					c-0.17,0.06-0.01,0.23-0.02,0.35c0,0.05-0.04,0.11-0.04,0.16c-0.01,0.12,0.02,0.27,0.07,0.37c0.1,0.2,0.27,0.41,0.44,0.54
					c0.19,0.15,0.36,0.57,0.61,0.63c0.18,0.04,0.38-0.1,0.54-0.14c0.18-0.04,0.4,0.01,0.57-0.05c0.22-0.08,0.13-0.34,0.29-0.45
					c0.1-0.07,0.29-0.01,0.41-0.05c0.2-0.07,0.34-0.26,0.38-0.46c0.02-0.08,0.01-0.14,0.04-0.22c0.04-0.1,0.11-0.16,0.09-0.29
					c-0.01-0.06-0.05-0.12-0.06-0.19c-0.02-0.11,0-0.22,0-0.34c0-0.2,0.02-0.38-0.08-0.55c-0.38-0.69-1.24-0.93-1.97-0.79
					c-0.18,0.03-0.29,0.13-0.44,0.21c-0.17,0.09-0.14,0.17-0.32,0.22c-0.08,0.03-0.22,0.12-0.21,0.22c0,0.12,0,0.05,0.01,0.17
					c-0.02,0.01-0.02,0-0.03-0.03"/>
				<path class="st2" d="M54.12-41.04c0.02,0.07,0.01,0.13-0.03,0.19c-0.05,0.1-0.11,0.06-0.17,0.13c-0.05,0.06-0.1,0.28-0.08,0.36
					c-0.17,0.06-0.01,0.23-0.02,0.35c0,0.05-0.04,0.11-0.04,0.16c-0.01,0.12,0.02,0.27,0.07,0.37c0.1,0.2,0.27,0.41,0.44,0.54
					c0.19,0.15,0.36,0.57,0.61,0.63c0.18,0.04,0.38-0.1,0.54-0.14c0.18-0.04,0.4,0.01,0.57-0.05c0.22-0.08,0.13-0.34,0.29-0.45
					c0.1-0.07,0.29-0.01,0.41-0.05c0.2-0.07,0.34-0.26,0.38-0.46c0.02-0.08,0.01-0.14,0.04-0.22c0.04-0.1,0.11-0.16,0.09-0.29
					c-0.01-0.06-0.05-0.12-0.06-0.19c-0.02-0.11,0-0.22,0-0.34c0-0.2,0.02-0.38-0.08-0.55c-0.38-0.69-1.24-0.93-1.97-0.79
					c-0.18,0.03-0.29,0.13-0.44,0.21c-0.17,0.09-0.14,0.17-0.32,0.22c-0.08,0.03-0.22,0.12-0.21,0.22c0,0.12,0,0.05,0.01,0.17
					c-0.02,0.01-0.02,0-0.03-0.03"/>
				<path class="st2" d="M46.46-41.04c0.02,0.07,0.01,0.13-0.03,0.19c-0.05,0.1-0.11,0.06-0.16,0.13c-0.05,0.06-0.1,0.28-0.08,0.36
					c-0.17,0.06-0.01,0.23-0.02,0.35c0,0.05-0.04,0.11-0.05,0.16c-0.01,0.12,0.02,0.27,0.07,0.37c0.1,0.2,0.27,0.41,0.44,0.54
					c0.19,0.15,0.36,0.57,0.61,0.63c0.18,0.04,0.38-0.1,0.54-0.14c0.18-0.04,0.4,0.01,0.57-0.05c0.22-0.08,0.13-0.34,0.29-0.45
					c0.1-0.07,0.29-0.01,0.41-0.05c0.2-0.07,0.34-0.26,0.38-0.46c0.02-0.08,0.01-0.14,0.04-0.22c0.04-0.1,0.11-0.16,0.09-0.29
					c-0.01-0.06-0.05-0.12-0.06-0.19c-0.02-0.11,0-0.22,0-0.34c0-0.2,0.02-0.38-0.08-0.55c-0.38-0.69-1.24-0.93-1.97-0.79
					c-0.18,0.03-0.29,0.13-0.44,0.21c-0.17,0.09-0.14,0.17-0.32,0.22c-0.08,0.03-0.22,0.12-0.21,0.22c0,0.12,0,0.05,0.01,0.17
					c-0.02,0.01-0.02,0-0.03-0.03"/>
				<path class="st2" d="M38.8-41.04c0.02,0.07,0.01,0.13-0.03,0.19c-0.05,0.1-0.11,0.06-0.17,0.13c-0.05,0.06-0.1,0.28-0.08,0.36
					c-0.17,0.06-0.01,0.23-0.02,0.35c0,0.05-0.04,0.11-0.04,0.16c-0.01,0.12,0.02,0.27,0.07,0.37c0.1,0.2,0.27,0.41,0.44,0.54
					c0.19,0.15,0.36,0.57,0.61,0.63c0.18,0.04,0.38-0.1,0.54-0.14c0.18-0.04,0.4,0.01,0.57-0.05c0.22-0.08,0.13-0.34,0.29-0.45
					c0.1-0.07,0.29-0.01,0.41-0.05c0.2-0.07,0.34-0.26,0.38-0.46c0.02-0.08,0.01-0.14,0.04-0.22c0.04-0.1,0.11-0.16,0.09-0.29
					c-0.01-0.06-0.05-0.12-0.06-0.19c-0.02-0.11,0-0.22,0-0.34c0-0.2,0.02-0.38-0.08-0.55c-0.38-0.69-1.24-0.93-1.97-0.79
					c-0.18,0.03-0.29,0.13-0.44,0.21c-0.17,0.09-0.14,0.17-0.32,0.22c-0.08,0.03-0.22,0.12-0.21,0.22c0,0.12,0,0.05,0.01,0.17
					c-0.02,0.01-0.02,0-0.03-0.03"/>
				<path class="st2" d="M31.14-41.04c0.02,0.07,0.01,0.13-0.03,0.19c-0.05,0.1-0.11,0.06-0.16,0.13c-0.05,0.06-0.1,0.28-0.08,0.36
					c-0.17,0.06-0.01,0.23-0.02,0.35c0,0.05-0.04,0.11-0.05,0.16c-0.01,0.12,0.02,0.27,0.07,0.37c0.1,0.2,0.27,0.41,0.44,0.54
					c0.19,0.15,0.36,0.57,0.61,0.63c0.18,0.04,0.38-0.1,0.54-0.14c0.18-0.04,0.4,0.01,0.57-0.05c0.22-0.08,0.13-0.34,0.29-0.45
					c0.1-0.07,0.29-0.01,0.41-0.05c0.2-0.07,0.34-0.26,0.38-0.46c0.02-0.08,0.01-0.14,0.04-0.22c0.04-0.1,0.11-0.16,0.09-0.29
					c-0.01-0.06-0.05-0.12-0.06-0.19c-0.02-0.11,0-0.22,0-0.34c0-0.2,0.02-0.38-0.08-0.55c-0.38-0.69-1.24-0.93-1.97-0.79
					c-0.18,0.03-0.29,0.13-0.44,0.21c-0.17,0.09-0.14,0.17-0.32,0.22c-0.08,0.03-0.22,0.12-0.21,0.22c0,0.12,0,0.05,0.01,0.17
					c-0.02,0.01-0.02,0-0.03-0.03"/>
				<path class="st2" d="M23.48-41.04c0.02,0.07,0.01,0.13-0.03,0.19c-0.05,0.1-0.11,0.06-0.17,0.13c-0.05,0.06-0.1,0.28-0.08,0.36
					c-0.17,0.06-0.01,0.23-0.02,0.35c0,0.05-0.04,0.11-0.04,0.16c-0.01,0.12,0.02,0.27,0.07,0.37c0.1,0.2,0.27,0.41,0.44,0.54
					c0.19,0.15,0.36,0.57,0.61,0.63c0.18,0.04,0.38-0.1,0.54-0.14c0.18-0.04,0.4,0.01,0.57-0.05c0.22-0.08,0.13-0.34,0.29-0.45
					c0.1-0.07,0.29-0.01,0.41-0.05c0.2-0.07,0.34-0.26,0.38-0.46c0.02-0.08,0.01-0.14,0.04-0.22c0.04-0.1,0.11-0.16,0.09-0.29
					c-0.01-0.06-0.05-0.12-0.06-0.19c-0.02-0.11,0-0.22,0-0.34c0-0.2,0.02-0.38-0.08-0.55c-0.38-0.69-1.24-0.93-1.97-0.79
					c-0.18,0.03-0.29,0.13-0.44,0.21c-0.17,0.09-0.14,0.17-0.32,0.22c-0.08,0.03-0.22,0.12-0.21,0.22c0,0.12,0,0.05,0.01,0.17
					c-0.02,0.01-0.02,0-0.03-0.03"/>
				<path class="st2" d="M15.82-41.04c0.02,0.07,0.01,0.13-0.03,0.19c-0.05,0.1-0.11,0.06-0.16,0.13c-0.05,0.06-0.1,0.28-0.08,0.36
					c-0.17,0.06-0.01,0.23-0.02,0.35c0,0.05-0.04,0.11-0.05,0.16c-0.01,0.12,0.02,0.27,0.07,0.37c0.1,0.2,0.27,0.41,0.44,0.54
					c0.19,0.15,0.36,0.57,0.61,0.63c0.18,0.04,0.38-0.1,0.54-0.14c0.18-0.04,0.4,0.01,0.57-0.05c0.22-0.08,0.13-0.34,0.29-0.45
					c0.1-0.07,0.29-0.01,0.41-0.05c0.2-0.07,0.34-0.26,0.38-0.46c0.02-0.08,0.01-0.14,0.04-0.22c0.04-0.1,0.11-0.16,0.09-0.29
					c-0.01-0.06-0.05-0.12-0.06-0.19c-0.02-0.11,0-0.22,0-0.34c0-0.2,0.02-0.38-0.08-0.55c-0.38-0.69-1.24-0.93-1.97-0.79
					c-0.18,0.03-0.29,0.13-0.44,0.21c-0.17,0.09-0.14,0.17-0.32,0.22c-0.08,0.03-0.22,0.12-0.21,0.22c0,0.12,0,0.05,0.01,0.17
					c-0.02,0.01-0.02,0-0.03-0.03"/>
				<path class="st2" d="M8.16-41.04c0.02,0.07,0.01,0.13-0.03,0.19c-0.05,0.1-0.11,0.06-0.17,0.13c-0.05,0.06-0.1,0.28-0.08,0.36
					c-0.17,0.06-0.01,0.23-0.02,0.35c0,0.05-0.04,0.11-0.04,0.16c-0.01,0.12,0.02,0.27,0.07,0.37c0.1,0.2,0.27,0.41,0.44,0.54
					c0.19,0.15,0.36,0.57,0.61,0.63c0.18,0.04,0.38-0.1,0.54-0.14c0.18-0.04,0.4,0.01,0.57-0.05c0.22-0.08,0.13-0.34,0.29-0.45
					c0.1-0.07,0.29-0.01,0.41-0.05c0.2-0.07,0.34-0.26,0.38-0.46c0.02-0.08,0.01-0.14,0.04-0.22c0.04-0.1,0.11-0.16,0.09-0.29
					c-0.01-0.06-0.05-0.12-0.06-0.19c-0.02-0.11,0-0.22,0-0.34c0-0.2,0.02-0.38-0.08-0.55c-0.38-0.69-1.24-0.93-1.97-0.79
					c-0.18,0.03-0.29,0.13-0.44,0.21c-0.17,0.09-0.14,0.17-0.32,0.22c-0.08,0.03-0.22,0.12-0.21,0.22c0,0.12,0,0.05,0.01,0.17
					c-0.02,0.01-0.02,0-0.03-0.03"/>
				<path class="st2" d="M0.5-41.04c0.02,0.07,0.01,0.13-0.03,0.19c-0.05,0.1-0.11,0.06-0.17,0.13c-0.05,0.06-0.1,0.28-0.08,0.36
					c-0.17,0.06-0.01,0.23-0.02,0.35c0,0.05-0.04,0.11-0.04,0.16c-0.01,0.12,0.02,0.27,0.07,0.37c0.1,0.2,0.27,0.41,0.44,0.54
					c0.19,0.15,0.36,0.57,0.61,0.63c0.18,0.04,0.38-0.1,0.54-0.14c0.18-0.04,0.4,0.01,0.57-0.05c0.22-0.08,0.13-0.34,0.29-0.45
					c0.1-0.07,0.29-0.01,0.41-0.05c0.2-0.07,0.34-0.26,0.38-0.46c0.02-0.08,0.01-0.14,0.04-0.22c0.04-0.1,0.11-0.16,0.09-0.29
					c-0.01-0.06-0.05-0.12-0.06-0.19c-0.02-0.11,0-0.22,0-0.34c0-0.2,0.02-0.38-0.08-0.55c-0.38-0.69-1.24-0.93-1.97-0.79
					c-0.18,0.03-0.29,0.13-0.44,0.21c-0.17,0.09-0.14,0.17-0.32,0.22c-0.08,0.03-0.22,0.12-0.21,0.22c0,0.12,0,0.05,0.01,0.17
					c-0.02,0.01-0.02,0-0.03-0.03"/>
			</g>
			<g>
				<path class="st2" d="M69.44-33.39c0.02,0.07,0.01,0.13-0.03,0.19c-0.05,0.1-0.11,0.06-0.17,0.13c-0.05,0.06-0.1,0.28-0.08,0.36
					c-0.17,0.06-0.01,0.23-0.02,0.35c0,0.05-0.04,0.11-0.04,0.16c-0.01,0.12,0.02,0.27,0.07,0.37c0.1,0.2,0.27,0.41,0.43,0.54
					c0.19,0.15,0.36,0.57,0.61,0.63c0.18,0.04,0.38-0.1,0.54-0.14c0.18-0.04,0.4,0.01,0.57-0.05c0.22-0.08,0.13-0.34,0.29-0.45
					c0.1-0.07,0.29-0.01,0.41-0.05c0.2-0.07,0.34-0.26,0.38-0.46c0.02-0.08,0.01-0.14,0.04-0.22c0.04-0.1,0.11-0.16,0.09-0.29
					c-0.01-0.06-0.05-0.12-0.06-0.19c-0.02-0.11,0-0.22,0-0.34c0-0.2,0.02-0.38-0.08-0.55c-0.38-0.69-1.24-0.93-1.97-0.79
					c-0.18,0.03-0.29,0.13-0.44,0.21c-0.17,0.09-0.14,0.17-0.32,0.22c-0.08,0.03-0.22,0.12-0.21,0.22c0,0.12,0,0.05,0.01,0.17
					c-0.02,0.01-0.02,0-0.03-0.03"/>
				<path class="st2" d="M61.78-33.39c0.02,0.07,0.01,0.13-0.03,0.19c-0.05,0.1-0.11,0.06-0.17,0.13c-0.05,0.06-0.1,0.28-0.08,0.36
					c-0.17,0.06-0.01,0.23-0.02,0.35c0,0.05-0.04,0.11-0.04,0.16c-0.01,0.12,0.02,0.27,0.07,0.37c0.1,0.2,0.27,0.41,0.44,0.54
					c0.19,0.15,0.36,0.57,0.61,0.63c0.18,0.04,0.38-0.1,0.54-0.14c0.18-0.04,0.4,0.01,0.57-0.05c0.22-0.08,0.13-0.34,0.29-0.45
					c0.1-0.07,0.29-0.01,0.41-0.05c0.2-0.07,0.34-0.26,0.38-0.46c0.02-0.08,0.01-0.14,0.04-0.22c0.04-0.1,0.11-0.16,0.09-0.29
					c-0.01-0.06-0.05-0.12-0.06-0.19c-0.02-0.11,0-0.22,0-0.34c0-0.2,0.02-0.38-0.08-0.55c-0.38-0.69-1.24-0.93-1.97-0.79
					c-0.18,0.03-0.29,0.13-0.44,0.21c-0.17,0.09-0.14,0.17-0.32,0.22c-0.08,0.03-0.22,0.12-0.21,0.22c0,0.12,0,0.05,0.01,0.17
					c-0.02,0.01-0.02,0-0.03-0.03"/>
				<path class="st2" d="M54.12-33.39c0.02,0.07,0.01,0.13-0.03,0.19c-0.05,0.1-0.11,0.06-0.17,0.13c-0.05,0.06-0.1,0.28-0.08,0.36
					c-0.17,0.06-0.01,0.23-0.02,0.35c0,0.05-0.04,0.11-0.04,0.16c-0.01,0.12,0.02,0.27,0.07,0.37c0.1,0.2,0.27,0.41,0.44,0.54
					c0.19,0.15,0.36,0.57,0.61,0.63c0.18,0.04,0.38-0.1,0.54-0.14c0.18-0.04,0.4,0.01,0.57-0.05c0.22-0.08,0.13-0.34,0.29-0.45
					c0.1-0.07,0.29-0.01,0.41-0.05c0.2-0.07,0.34-0.26,0.38-0.46c0.02-0.08,0.01-0.14,0.04-0.22c0.04-0.1,0.11-0.16,0.09-0.29
					c-0.01-0.06-0.05-0.12-0.06-0.19c-0.02-0.11,0-0.22,0-0.34c0-0.2,0.02-0.38-0.08-0.55c-0.38-0.69-1.24-0.93-1.97-0.79
					c-0.18,0.03-0.29,0.13-0.44,0.21c-0.17,0.09-0.14,0.17-0.32,0.22c-0.08,0.03-0.22,0.12-0.21,0.22c0,0.12,0,0.05,0.01,0.17
					c-0.02,0.01-0.02,0-0.03-0.03"/>
				<path class="st2" d="M46.46-33.39c0.02,0.07,0.01,0.13-0.03,0.19c-0.05,0.1-0.11,0.06-0.16,0.13c-0.05,0.06-0.1,0.28-0.08,0.36
					c-0.17,0.06-0.01,0.23-0.02,0.35c0,0.05-0.04,0.11-0.05,0.16c-0.01,0.12,0.02,0.27,0.07,0.37c0.1,0.2,0.27,0.41,0.44,0.54
					c0.19,0.15,0.36,0.57,0.61,0.63c0.18,0.04,0.38-0.1,0.54-0.14c0.18-0.04,0.4,0.01,0.57-0.05c0.22-0.08,0.13-0.34,0.29-0.45
					c0.1-0.07,0.29-0.01,0.41-0.05c0.2-0.07,0.34-0.26,0.38-0.46c0.02-0.08,0.01-0.14,0.04-0.22c0.04-0.1,0.11-0.16,0.09-0.29
					c-0.01-0.06-0.05-0.12-0.06-0.19c-0.02-0.11,0-0.22,0-0.34c0-0.2,0.02-0.38-0.08-0.55c-0.38-0.69-1.24-0.93-1.97-0.79
					c-0.18,0.03-0.29,0.13-0.44,0.21c-0.17,0.09-0.14,0.17-0.32,0.22c-0.08,0.03-0.22,0.12-0.21,0.22c0,0.12,0,0.05,0.01,0.17
					c-0.02,0.01-0.02,0-0.03-0.03"/>
				<path class="st2" d="M38.8-33.39c0.02,0.07,0.01,0.13-0.03,0.19c-0.05,0.1-0.11,0.06-0.17,0.13c-0.05,0.06-0.1,0.28-0.08,0.36
					c-0.17,0.06-0.01,0.23-0.02,0.35c0,0.05-0.04,0.11-0.04,0.16c-0.01,0.12,0.02,0.27,0.07,0.37c0.1,0.2,0.27,0.41,0.44,0.54
					c0.19,0.15,0.36,0.57,0.61,0.63c0.18,0.04,0.38-0.1,0.54-0.14c0.18-0.04,0.4,0.01,0.57-0.05c0.22-0.08,0.13-0.34,0.29-0.45
					c0.1-0.07,0.29-0.01,0.41-0.05c0.2-0.07,0.34-0.26,0.38-0.46c0.02-0.08,0.01-0.14,0.04-0.22c0.04-0.1,0.11-0.16,0.09-0.29
					c-0.01-0.06-0.05-0.12-0.06-0.19c-0.02-0.11,0-0.22,0-0.34c0-0.2,0.02-0.38-0.08-0.55c-0.38-0.69-1.24-0.93-1.97-0.79
					c-0.18,0.03-0.29,0.13-0.44,0.21c-0.17,0.09-0.14,0.17-0.32,0.22c-0.08,0.03-0.22,0.12-0.21,0.22c0,0.12,0,0.05,0.01,0.17
					c-0.02,0.01-0.02,0-0.03-0.03"/>
				<path class="st2" d="M31.14-33.39c0.02,0.07,0.01,0.13-0.03,0.19c-0.05,0.1-0.11,0.06-0.16,0.13c-0.05,0.06-0.1,0.28-0.08,0.36
					c-0.17,0.06-0.01,0.23-0.02,0.35c0,0.05-0.04,0.11-0.05,0.16c-0.01,0.12,0.02,0.27,0.07,0.37c0.1,0.2,0.27,0.41,0.44,0.54
					c0.19,0.15,0.36,0.57,0.61,0.63c0.18,0.04,0.38-0.1,0.54-0.14c0.18-0.04,0.4,0.01,0.57-0.05c0.22-0.08,0.13-0.34,0.29-0.45
					c0.1-0.07,0.29-0.01,0.41-0.05c0.2-0.07,0.34-0.26,0.38-0.46c0.02-0.08,0.01-0.14,0.04-0.22c0.04-0.1,0.11-0.16,0.09-0.29
					c-0.01-0.06-0.05-0.12-0.06-0.19c-0.02-0.11,0-0.22,0-0.34c0-0.2,0.02-0.38-0.08-0.55c-0.38-0.69-1.24-0.93-1.97-0.79
					c-0.18,0.03-0.29,0.13-0.44,0.21c-0.17,0.09-0.14,0.17-0.32,0.22c-0.08,0.03-0.22,0.12-0.21,0.22c0,0.12,0,0.05,0.01,0.17
					c-0.02,0.01-0.02,0-0.03-0.03"/>
				<path class="st2" d="M23.48-33.39c0.02,0.07,0.01,0.13-0.03,0.19c-0.05,0.1-0.11,0.06-0.17,0.13c-0.05,0.06-0.1,0.28-0.08,0.36
					c-0.17,0.06-0.01,0.23-0.02,0.35c0,0.05-0.04,0.11-0.04,0.16c-0.01,0.12,0.02,0.27,0.07,0.37c0.1,0.2,0.27,0.41,0.44,0.54
					c0.19,0.15,0.36,0.57,0.61,0.63c0.18,0.04,0.38-0.1,0.54-0.14c0.18-0.04,0.4,0.01,0.57-0.05c0.22-0.08,0.13-0.34,0.29-0.45
					c0.1-0.07,0.29-0.01,0.41-0.05c0.2-0.07,0.34-0.26,0.38-0.46c0.02-0.08,0.01-0.14,0.04-0.22c0.04-0.1,0.11-0.16,0.09-0.29
					c-0.01-0.06-0.05-0.12-0.06-0.19c-0.02-0.11,0-0.22,0-0.34c0-0.2,0.02-0.38-0.08-0.55c-0.38-0.69-1.24-0.93-1.97-0.79
					c-0.18,0.03-0.29,0.13-0.44,0.21c-0.17,0.09-0.14,0.17-0.32,0.22c-0.08,0.03-0.22,0.12-0.21,0.22c0,0.12,0,0.05,0.01,0.17
					c-0.02,0.01-0.02,0-0.03-0.03"/>
				<path class="st2" d="M15.82-33.39c0.02,0.07,0.01,0.13-0.03,0.19c-0.05,0.1-0.11,0.06-0.16,0.13c-0.05,0.06-0.1,0.28-0.08,0.36
					c-0.17,0.06-0.01,0.23-0.02,0.35c0,0.05-0.04,0.11-0.05,0.16c-0.01,0.12,0.02,0.27,0.07,0.37c0.1,0.2,0.27,0.41,0.44,0.54
					c0.19,0.15,0.36,0.57,0.61,0.63c0.18,0.04,0.38-0.1,0.54-0.14c0.18-0.04,0.4,0.01,0.57-0.05c0.22-0.08,0.13-0.34,0.29-0.45
					c0.1-0.07,0.29-0.01,0.41-0.05c0.2-0.07,0.34-0.26,0.38-0.46c0.02-0.08,0.01-0.14,0.04-0.22c0.04-0.1,0.11-0.16,0.09-0.29
					c-0.01-0.06-0.05-0.12-0.06-0.19c-0.02-0.11,0-0.22,0-0.34c0-0.2,0.02-0.38-0.08-0.55c-0.38-0.69-1.24-0.93-1.97-0.79
					c-0.18,0.03-0.29,0.13-0.44,0.21c-0.17,0.09-0.14,0.17-0.32,0.22c-0.08,0.03-0.22,0.12-0.21,0.22c0,0.12,0,0.05,0.01,0.17
					c-0.02,0.01-0.02,0-0.03-0.03"/>
				<path class="st2" d="M8.16-33.39c0.02,0.07,0.01,0.13-0.03,0.19c-0.05,0.1-0.11,0.06-0.17,0.13c-0.05,0.06-0.1,0.28-0.08,0.36
					c-0.17,0.06-0.01,0.23-0.02,0.35c0,0.05-0.04,0.11-0.04,0.16c-0.01,0.12,0.02,0.27,0.07,0.37c0.1,0.2,0.27,0.41,0.44,0.54
					c0.19,0.15,0.36,0.57,0.61,0.63c0.18,0.04,0.38-0.1,0.54-0.14c0.18-0.04,0.4,0.01,0.57-0.05c0.22-0.08,0.13-0.34,0.29-0.45
					c0.1-0.07,0.29-0.01,0.41-0.05c0.2-0.07,0.34-0.26,0.38-0.46c0.02-0.08,0.01-0.14,0.04-0.22c0.04-0.1,0.11-0.16,0.09-0.29
					c-0.01-0.06-0.05-0.12-0.06-0.19c-0.02-0.11,0-0.22,0-0.34c0-0.2,0.02-0.38-0.08-0.55c-0.38-0.69-1.24-0.93-1.97-0.79
					c-0.18,0.03-0.29,0.13-0.44,0.21c-0.17,0.09-0.14,0.17-0.32,0.22c-0.08,0.03-0.22,0.12-0.21,0.22c0,0.12,0,0.05,0.01,0.17
					c-0.02,0.01-0.02,0-0.03-0.03"/>
				<path class="st2" d="M0.5-33.39c0.02,0.07,0.01,0.13-0.03,0.19c-0.05,0.1-0.11,0.06-0.17,0.13c-0.05,0.06-0.1,0.28-0.08,0.36
					c-0.17,0.06-0.01,0.23-0.02,0.35c0,0.05-0.04,0.11-0.04,0.16c-0.01,0.12,0.02,0.27,0.07,0.37c0.1,0.2,0.27,0.41,0.44,0.54
					c0.19,0.15,0.36,0.57,0.61,0.63c0.18,0.04,0.38-0.1,0.54-0.14c0.18-0.04,0.4,0.01,0.57-0.05c0.22-0.08,0.13-0.34,0.29-0.45
					c0.1-0.07,0.29-0.01,0.41-0.05c0.2-0.07,0.34-0.26,0.38-0.46c0.02-0.08,0.01-0.14,0.04-0.22c0.04-0.1,0.11-0.16,0.09-0.29
					c-0.01-0.06-0.05-0.12-0.06-0.19c-0.02-0.11,0-0.22,0-0.34c0-0.2,0.02-0.38-0.08-0.55c-0.38-0.69-1.24-0.93-1.97-0.79
					c-0.18,0.03-0.29,0.13-0.44,0.21c-0.17,0.09-0.14,0.17-0.32,0.22c-0.08,0.03-0.22,0.12-0.21,0.22c0,0.12,0,0.05,0.01,0.17
					c-0.02,0.01-0.02,0-0.03-0.03"/>
			</g>
			<g>
				<path class="st2" d="M69.44-25.74c0.02,0.07,0.01,0.13-0.03,0.19c-0.05,0.1-0.11,0.06-0.17,0.13c-0.05,0.06-0.1,0.28-0.08,0.36
					C69-25,69.16-24.83,69.15-24.71c0,0.05-0.04,0.11-0.04,0.16c-0.01,0.12,0.02,0.27,0.07,0.37c0.1,0.2,0.27,0.41,0.43,0.54
					c0.19,0.15,0.36,0.57,0.61,0.63c0.18,0.04,0.38-0.1,0.54-0.14c0.18-0.04,0.4,0.01,0.57-0.05c0.22-0.08,0.13-0.34,0.29-0.45
					c0.1-0.07,0.29-0.01,0.41-0.05c0.2-0.07,0.34-0.26,0.38-0.46c0.02-0.08,0.01-0.14,0.04-0.22c0.04-0.1,0.11-0.16,0.09-0.29
					c-0.01-0.06-0.05-0.12-0.06-0.19c-0.02-0.11,0-0.22,0-0.34c0-0.2,0.02-0.38-0.08-0.55c-0.38-0.69-1.24-0.93-1.97-0.79
					c-0.18,0.03-0.29,0.13-0.44,0.21c-0.17,0.09-0.14,0.17-0.32,0.22c-0.08,0.03-0.22,0.12-0.21,0.22c0,0.12,0,0.05,0.01,0.17
					c-0.02,0.01-0.02,0-0.03-0.03"/>
				<path class="st2" d="M61.78-25.74c0.02,0.07,0.01,0.13-0.03,0.19c-0.05,0.1-0.11,0.06-0.17,0.13c-0.05,0.06-0.1,0.28-0.08,0.36
					c-0.17,0.06-0.01,0.23-0.02,0.35c0,0.05-0.04,0.11-0.04,0.16c-0.01,0.12,0.02,0.27,0.07,0.37c0.1,0.2,0.27,0.41,0.44,0.54
					c0.19,0.15,0.36,0.57,0.61,0.63c0.18,0.04,0.38-0.1,0.54-0.14c0.18-0.04,0.4,0.01,0.57-0.05c0.22-0.08,0.13-0.34,0.29-0.45
					c0.1-0.07,0.29-0.01,0.41-0.05c0.2-0.07,0.34-0.26,0.38-0.46c0.02-0.08,0.01-0.14,0.04-0.22c0.04-0.1,0.11-0.16,0.09-0.29
					c-0.01-0.06-0.05-0.12-0.06-0.19c-0.02-0.11,0-0.22,0-0.34c0-0.2,0.02-0.38-0.08-0.55c-0.38-0.69-1.24-0.93-1.97-0.79
					c-0.18,0.03-0.29,0.13-0.44,0.21c-0.17,0.09-0.14,0.17-0.32,0.22c-0.08,0.03-0.22,0.12-0.21,0.22c0,0.12,0,0.05,0.01,0.17
					c-0.02,0.01-0.02,0-0.03-0.03"/>
				<path class="st2" d="M54.12-25.74c0.02,0.07,0.01,0.13-0.03,0.19c-0.05,0.1-0.11,0.06-0.17,0.13c-0.05,0.06-0.1,0.28-0.08,0.36
					c-0.17,0.06-0.01,0.23-0.02,0.35c0,0.05-0.04,0.11-0.04,0.16c-0.01,0.12,0.02,0.27,0.07,0.37c0.1,0.2,0.27,0.41,0.44,0.54
					c0.19,0.15,0.36,0.57,0.61,0.63c0.18,0.04,0.38-0.1,0.54-0.14c0.18-0.04,0.4,0.01,0.57-0.05c0.22-0.08,0.13-0.34,0.29-0.45
					c0.1-0.07,0.29-0.01,0.41-0.05c0.2-0.07,0.34-0.26,0.38-0.46c0.02-0.08,0.01-0.14,0.04-0.22c0.04-0.1,0.11-0.16,0.09-0.29
					c-0.01-0.06-0.05-0.12-0.06-0.19c-0.02-0.11,0-0.22,0-0.34c0-0.2,0.02-0.38-0.08-0.55c-0.38-0.69-1.24-0.93-1.97-0.79
					c-0.18,0.03-0.29,0.13-0.44,0.21c-0.17,0.09-0.14,0.17-0.32,0.22c-0.08,0.03-0.22,0.12-0.21,0.22c0,0.12,0,0.05,0.01,0.17
					c-0.02,0.01-0.02,0-0.03-0.03"/>
				<path class="st2" d="M46.46-25.74c0.02,0.07,0.01,0.13-0.03,0.19c-0.05,0.1-0.11,0.06-0.16,0.13c-0.05,0.06-0.1,0.28-0.08,0.36
					c-0.17,0.06-0.01,0.23-0.02,0.35c0,0.05-0.04,0.11-0.05,0.16c-0.01,0.12,0.02,0.27,0.07,0.37c0.1,0.2,0.27,0.41,0.44,0.54
					c0.19,0.15,0.36,0.57,0.61,0.63c0.18,0.04,0.38-0.1,0.54-0.14c0.18-0.04,0.4,0.01,0.57-0.05c0.22-0.08,0.13-0.34,0.29-0.45
					c0.1-0.07,0.29-0.01,0.41-0.05c0.2-0.07,0.34-0.26,0.38-0.46c0.02-0.08,0.01-0.14,0.04-0.22c0.04-0.1,0.11-0.16,0.09-0.29
					c-0.01-0.06-0.05-0.12-0.06-0.19c-0.02-0.11,0-0.22,0-0.34c0-0.2,0.02-0.38-0.08-0.55c-0.38-0.69-1.24-0.93-1.97-0.79
					c-0.18,0.03-0.29,0.13-0.44,0.21c-0.17,0.09-0.14,0.17-0.32,0.22c-0.08,0.03-0.22,0.12-0.21,0.22c0,0.12,0,0.05,0.01,0.17
					c-0.02,0.01-0.02,0-0.03-0.03"/>
				<path class="st2" d="M38.8-25.74c0.02,0.07,0.01,0.13-0.03,0.19c-0.05,0.1-0.11,0.06-0.17,0.13c-0.05,0.06-0.1,0.28-0.08,0.36
					c-0.17,0.06-0.01,0.23-0.02,0.35c0,0.05-0.04,0.11-0.04,0.16c-0.01,0.12,0.02,0.27,0.07,0.37c0.1,0.2,0.27,0.41,0.44,0.54
					c0.19,0.15,0.36,0.57,0.61,0.63c0.18,0.04,0.38-0.1,0.54-0.14c0.18-0.04,0.4,0.01,0.57-0.05c0.22-0.08,0.13-0.34,0.29-0.45
					c0.1-0.07,0.29-0.01,0.41-0.05c0.2-0.07,0.34-0.26,0.38-0.46c0.02-0.08,0.01-0.14,0.04-0.22c0.04-0.1,0.11-0.16,0.09-0.29
					c-0.01-0.06-0.05-0.12-0.06-0.19c-0.02-0.11,0-0.22,0-0.34c0-0.2,0.02-0.38-0.08-0.55c-0.38-0.69-1.24-0.93-1.97-0.79
					c-0.18,0.03-0.29,0.13-0.44,0.21c-0.17,0.09-0.14,0.17-0.32,0.22c-0.08,0.03-0.22,0.12-0.21,0.22c0,0.12,0,0.05,0.01,0.17
					c-0.02,0.01-0.02,0-0.03-0.03"/>
				<path class="st2" d="M31.14-25.74c0.02,0.07,0.01,0.13-0.03,0.19c-0.05,0.1-0.11,0.06-0.16,0.13c-0.05,0.06-0.1,0.28-0.08,0.36
					c-0.17,0.06-0.01,0.23-0.02,0.35c0,0.05-0.04,0.11-0.05,0.16c-0.01,0.12,0.02,0.27,0.07,0.37c0.1,0.2,0.27,0.41,0.44,0.54
					c0.19,0.15,0.36,0.57,0.61,0.63c0.18,0.04,0.38-0.1,0.54-0.14c0.18-0.04,0.4,0.01,0.57-0.05c0.22-0.08,0.13-0.34,0.29-0.45
					c0.1-0.07,0.29-0.01,0.41-0.05c0.2-0.07,0.34-0.26,0.38-0.46c0.02-0.08,0.01-0.14,0.04-0.22c0.04-0.1,0.11-0.16,0.09-0.29
					c-0.01-0.06-0.05-0.12-0.06-0.19c-0.02-0.11,0-0.22,0-0.34c0-0.2,0.02-0.38-0.08-0.55c-0.38-0.69-1.24-0.93-1.97-0.79
					c-0.18,0.03-0.29,0.13-0.44,0.21c-0.17,0.09-0.14,0.17-0.32,0.22c-0.08,0.03-0.22,0.12-0.21,0.22c0,0.12,0,0.05,0.01,0.17
					c-0.02,0.01-0.02,0-0.03-0.03"/>
				<path class="st2" d="M23.48-25.74c0.02,0.07,0.01,0.13-0.03,0.19c-0.05,0.1-0.11,0.06-0.17,0.13c-0.05,0.06-0.1,0.28-0.08,0.36
					c-0.17,0.06-0.01,0.23-0.02,0.35c0,0.05-0.04,0.11-0.04,0.16c-0.01,0.12,0.02,0.27,0.07,0.37c0.1,0.2,0.27,0.41,0.44,0.54
					c0.19,0.15,0.36,0.57,0.61,0.63c0.18,0.04,0.38-0.1,0.54-0.14c0.18-0.04,0.4,0.01,0.57-0.05c0.22-0.08,0.13-0.34,0.29-0.45
					c0.1-0.07,0.29-0.01,0.41-0.05c0.2-0.07,0.34-0.26,0.38-0.46c0.02-0.08,0.01-0.14,0.04-0.22c0.04-0.1,0.11-0.16,0.09-0.29
					c-0.01-0.06-0.05-0.12-0.06-0.19c-0.02-0.11,0-0.22,0-0.34c0-0.2,0.02-0.38-0.08-0.55c-0.38-0.69-1.24-0.93-1.97-0.79
					c-0.18,0.03-0.29,0.13-0.44,0.21c-0.17,0.09-0.14,0.17-0.32,0.22c-0.08,0.03-0.22,0.12-0.21,0.22c0,0.12,0,0.05,0.01,0.17
					c-0.02,0.01-0.02,0-0.03-0.03"/>
				<path class="st2" d="M15.82-25.74c0.02,0.07,0.01,0.13-0.03,0.19c-0.05,0.1-0.11,0.06-0.16,0.13c-0.05,0.06-0.1,0.28-0.08,0.36
					c-0.17,0.06-0.01,0.23-0.02,0.35c0,0.05-0.04,0.11-0.05,0.16c-0.01,0.12,0.02,0.27,0.07,0.37c0.1,0.2,0.27,0.41,0.44,0.54
					c0.19,0.15,0.36,0.57,0.61,0.63c0.18,0.04,0.38-0.1,0.54-0.14c0.18-0.04,0.4,0.01,0.57-0.05c0.22-0.08,0.13-0.34,0.29-0.45
					c0.1-0.07,0.29-0.01,0.41-0.05c0.2-0.07,0.34-0.26,0.38-0.46c0.02-0.08,0.01-0.14,0.04-0.22c0.04-0.1,0.11-0.16,0.09-0.29
					c-0.01-0.06-0.05-0.12-0.06-0.19c-0.02-0.11,0-0.22,0-0.34c0-0.2,0.02-0.38-0.08-0.55c-0.38-0.69-1.24-0.93-1.97-0.79
					c-0.18,0.03-0.29,0.13-0.44,0.21c-0.17,0.09-0.14,0.17-0.32,0.22c-0.08,0.03-0.22,0.12-0.21,0.22c0,0.12,0,0.05,0.01,0.17
					c-0.02,0.01-0.02,0-0.03-0.03"/>
				<path class="st2" d="M8.16-25.74c0.02,0.07,0.01,0.13-0.03,0.19c-0.05,0.1-0.11,0.06-0.17,0.13c-0.05,0.06-0.1,0.28-0.08,0.36
					C7.72-25,7.88-24.83,7.87-24.71c0,0.05-0.04,0.11-0.04,0.16c-0.01,0.12,0.02,0.27,0.07,0.37c0.1,0.2,0.27,0.41,0.44,0.54
					c0.19,0.15,0.36,0.57,0.61,0.63c0.18,0.04,0.38-0.1,0.54-0.14c0.18-0.04,0.4,0.01,0.57-0.05c0.22-0.08,0.13-0.34,0.29-0.45
					c0.1-0.07,0.29-0.01,0.41-0.05c0.2-0.07,0.34-0.26,0.38-0.46c0.02-0.08,0.01-0.14,0.04-0.22c0.04-0.1,0.11-0.16,0.09-0.29
					c-0.01-0.06-0.05-0.12-0.06-0.19c-0.02-0.11,0-0.22,0-0.34c0-0.2,0.02-0.38-0.08-0.55c-0.38-0.69-1.24-0.93-1.97-0.79
					c-0.18,0.03-0.29,0.13-0.44,0.21c-0.17,0.09-0.14,0.17-0.32,0.22c-0.08,0.03-0.22,0.12-0.21,0.22c0,0.12,0,0.05,0.01,0.17
					c-0.02,0.01-0.02,0-0.03-0.03"/>
				<path class="st2" d="M0.5-25.74c0.02,0.07,0.01,0.13-0.03,0.19c-0.05,0.1-0.11,0.06-0.17,0.13c-0.05,0.06-0.1,0.28-0.08,0.36
					C0.06-25,0.22-24.83,0.21-24.71c0,0.05-0.04,0.11-0.04,0.16c-0.01,0.12,0.02,0.27,0.07,0.37c0.1,0.2,0.27,0.41,0.44,0.54
					c0.19,0.15,0.36,0.57,0.61,0.63c0.18,0.04,0.38-0.1,0.54-0.14c0.18-0.04,0.4,0.01,0.57-0.05c0.22-0.08,0.13-0.34,0.29-0.45
					c0.1-0.07,0.29-0.01,0.41-0.05c0.2-0.07,0.34-0.26,0.38-0.46c0.02-0.08,0.01-0.14,0.04-0.22c0.04-0.1,0.11-0.16,0.09-0.29
					c-0.01-0.06-0.05-0.12-0.06-0.19c-0.02-0.11,0-0.22,0-0.34c0-0.2,0.02-0.38-0.08-0.55c-0.38-0.69-1.24-0.93-1.97-0.79
					c-0.18,0.03-0.29,0.13-0.44,0.21c-0.17,0.09-0.14,0.17-0.32,0.22c-0.08,0.03-0.22,0.12-0.21,0.22c0,0.12,0,0.05,0.01,0.17
					c-0.02,0.01-0.02,0-0.03-0.03"/>
			</g>
			<g>
				<path class="st2" d="M69.44-18.08c0.02,0.07,0.01,0.13-0.03,0.19c-0.05,0.1-0.11,0.06-0.17,0.13c-0.05,0.06-0.1,0.28-0.08,0.36
					c-0.17,0.06-0.01,0.23-0.02,0.35c0,0.05-0.04,0.11-0.04,0.16c-0.01,0.12,0.02,0.27,0.07,0.37c0.1,0.2,0.27,0.41,0.43,0.54
					c0.19,0.15,0.36,0.57,0.61,0.63c0.18,0.04,0.38-0.1,0.54-0.14c0.18-0.04,0.4,0.01,0.57-0.05c0.22-0.08,0.13-0.34,0.29-0.45
					c0.1-0.07,0.29-0.01,0.41-0.05c0.2-0.07,0.34-0.26,0.38-0.46c0.02-0.08,0.01-0.14,0.04-0.22c0.04-0.1,0.11-0.16,0.09-0.29
					c-0.01-0.06-0.05-0.12-0.06-0.19c-0.02-0.11,0-0.22,0-0.34c0-0.2,0.02-0.38-0.08-0.55c-0.38-0.69-1.24-0.93-1.97-0.79
					c-0.18,0.03-0.29,0.13-0.44,0.21c-0.17,0.09-0.14,0.17-0.32,0.22c-0.08,0.03-0.22,0.12-0.21,0.22c0,0.12,0,0.05,0.01,0.17
					c-0.02,0.01-0.02,0-0.03-0.03"/>
				<path class="st2" d="M61.78-18.08c0.02,0.07,0.01,0.13-0.03,0.19c-0.05,0.1-0.11,0.06-0.17,0.13c-0.05,0.06-0.1,0.28-0.08,0.36
					c-0.17,0.06-0.01,0.23-0.02,0.35c0,0.05-0.04,0.11-0.04,0.16c-0.01,0.12,0.02,0.27,0.07,0.37c0.1,0.2,0.27,0.41,0.44,0.54
					c0.19,0.15,0.36,0.57,0.61,0.63c0.18,0.04,0.38-0.1,0.54-0.14c0.18-0.04,0.4,0.01,0.57-0.05c0.22-0.08,0.13-0.34,0.29-0.45
					c0.1-0.07,0.29-0.01,0.41-0.05c0.2-0.07,0.34-0.26,0.38-0.46c0.02-0.08,0.01-0.14,0.04-0.22c0.04-0.1,0.11-0.16,0.09-0.29
					c-0.01-0.06-0.05-0.12-0.06-0.19c-0.02-0.11,0-0.22,0-0.34c0-0.2,0.02-0.38-0.08-0.55c-0.38-0.69-1.24-0.93-1.97-0.79
					c-0.18,0.03-0.29,0.13-0.44,0.21c-0.17,0.09-0.14,0.17-0.32,0.22c-0.08,0.03-0.22,0.12-0.21,0.22c0,0.12,0,0.05,0.01,0.17
					c-0.02,0.01-0.02,0-0.03-0.03"/>
				<path class="st2" d="M54.12-18.08c0.02,0.07,0.01,0.13-0.03,0.19c-0.05,0.1-0.11,0.06-0.17,0.13c-0.05,0.06-0.1,0.28-0.08,0.36
					c-0.17,0.06-0.01,0.23-0.02,0.35c0,0.05-0.04,0.11-0.04,0.16c-0.01,0.12,0.02,0.27,0.07,0.37c0.1,0.2,0.27,0.41,0.44,0.54
					c0.19,0.15,0.36,0.57,0.61,0.63c0.18,0.04,0.38-0.1,0.54-0.14c0.18-0.04,0.4,0.01,0.57-0.05c0.22-0.08,0.13-0.34,0.29-0.45
					c0.1-0.07,0.29-0.01,0.41-0.05c0.2-0.07,0.34-0.26,0.38-0.46c0.02-0.08,0.01-0.14,0.04-0.22c0.04-0.1,0.11-0.16,0.09-0.29
					c-0.01-0.06-0.05-0.12-0.06-0.19c-0.02-0.11,0-0.22,0-0.34c0-0.2,0.02-0.38-0.08-0.55c-0.38-0.69-1.24-0.93-1.97-0.79
					c-0.18,0.03-0.29,0.13-0.44,0.21c-0.17,0.09-0.14,0.17-0.32,0.22c-0.08,0.03-0.22,0.12-0.21,0.22c0,0.12,0,0.05,0.01,0.17
					c-0.02,0.01-0.02,0-0.03-0.03"/>
				<path class="st2" d="M46.46-18.08c0.02,0.07,0.01,0.13-0.03,0.19c-0.05,0.1-0.11,0.06-0.16,0.13c-0.05,0.06-0.1,0.28-0.08,0.36
					c-0.17,0.06-0.01,0.23-0.02,0.35c0,0.05-0.04,0.11-0.05,0.16c-0.01,0.12,0.02,0.27,0.07,0.37c0.1,0.2,0.27,0.41,0.44,0.54
					c0.19,0.15,0.36,0.57,0.61,0.63c0.18,0.04,0.38-0.1,0.54-0.14c0.18-0.04,0.4,0.01,0.57-0.05c0.22-0.08,0.13-0.34,0.29-0.45
					c0.1-0.07,0.29-0.01,0.41-0.05c0.2-0.07,0.34-0.26,0.38-0.46c0.02-0.08,0.01-0.14,0.04-0.22c0.04-0.1,0.11-0.16,0.09-0.29
					c-0.01-0.06-0.05-0.12-0.06-0.19c-0.02-0.11,0-0.22,0-0.34c0-0.2,0.02-0.38-0.08-0.55c-0.38-0.69-1.24-0.93-1.97-0.79
					c-0.18,0.03-0.29,0.13-0.44,0.21c-0.17,0.09-0.14,0.17-0.32,0.22c-0.08,0.03-0.22,0.12-0.21,0.22c0,0.12,0,0.05,0.01,0.17
					c-0.02,0.01-0.02,0-0.03-0.03"/>
				<path class="st2" d="M38.8-18.08c0.02,0.07,0.01,0.13-0.03,0.19c-0.05,0.1-0.11,0.06-0.17,0.13c-0.05,0.06-0.1,0.28-0.08,0.36
					c-0.17,0.06-0.01,0.23-0.02,0.35c0,0.05-0.04,0.11-0.04,0.16c-0.01,0.12,0.02,0.27,0.07,0.37c0.1,0.2,0.27,0.41,0.44,0.54
					c0.19,0.15,0.36,0.57,0.61,0.63c0.18,0.04,0.38-0.1,0.54-0.14c0.18-0.04,0.4,0.01,0.57-0.05c0.22-0.08,0.13-0.34,0.29-0.45
					c0.1-0.07,0.29-0.01,0.41-0.05c0.2-0.07,0.34-0.26,0.38-0.46c0.02-0.08,0.01-0.14,0.04-0.22c0.04-0.1,0.11-0.16,0.09-0.29
					c-0.01-0.06-0.05-0.12-0.06-0.19c-0.02-0.11,0-0.22,0-0.34c0-0.2,0.02-0.38-0.08-0.55c-0.38-0.69-1.24-0.93-1.97-0.79
					c-0.18,0.03-0.29,0.13-0.44,0.21c-0.17,0.09-0.14,0.17-0.32,0.22c-0.08,0.03-0.22,0.12-0.21,0.22c0,0.12,0,0.05,0.01,0.17
					c-0.02,0.01-0.02,0-0.03-0.03"/>
				<path class="st2" d="M31.14-18.08c0.02,0.07,0.01,0.13-0.03,0.19c-0.05,0.1-0.11,0.06-0.16,0.13c-0.05,0.06-0.1,0.28-0.08,0.36
					c-0.17,0.06-0.01,0.23-0.02,0.35c0,0.05-0.04,0.11-0.05,0.16c-0.01,0.12,0.02,0.27,0.07,0.37c0.1,0.2,0.27,0.41,0.44,0.54
					c0.19,0.15,0.36,0.57,0.61,0.63c0.18,0.04,0.38-0.1,0.54-0.14c0.18-0.04,0.4,0.01,0.57-0.05c0.22-0.08,0.13-0.34,0.29-0.45
					c0.1-0.07,0.29-0.01,0.41-0.05c0.2-0.07,0.34-0.26,0.38-0.46c0.02-0.08,0.01-0.14,0.04-0.22c0.04-0.1,0.11-0.16,0.09-0.29
					c-0.01-0.06-0.05-0.12-0.06-0.19c-0.02-0.11,0-0.22,0-0.34c0-0.2,0.02-0.38-0.08-0.55c-0.38-0.69-1.24-0.93-1.97-0.79
					c-0.18,0.03-0.29,0.13-0.44,0.21c-0.17,0.09-0.14,0.17-0.32,0.22c-0.08,0.03-0.22,0.12-0.21,0.22c0,0.12,0,0.05,0.01,0.17
					c-0.02,0.01-0.02,0-0.03-0.03"/>
				<path class="st2" d="M23.48-18.08c0.02,0.07,0.01,0.13-0.03,0.19c-0.05,0.1-0.11,0.06-0.17,0.13c-0.05,0.06-0.1,0.28-0.08,0.36
					c-0.17,0.06-0.01,0.23-0.02,0.35c0,0.05-0.04,0.11-0.04,0.16c-0.01,0.12,0.02,0.27,0.07,0.37c0.1,0.2,0.27,0.41,0.44,0.54
					c0.19,0.15,0.36,0.57,0.61,0.63c0.18,0.04,0.38-0.1,0.54-0.14c0.18-0.04,0.4,0.01,0.57-0.05c0.22-0.08,0.13-0.34,0.29-0.45
					c0.1-0.07,0.29-0.01,0.41-0.05c0.2-0.07,0.34-0.26,0.38-0.46c0.02-0.08,0.01-0.14,0.04-0.22c0.04-0.1,0.11-0.16,0.09-0.29
					c-0.01-0.06-0.05-0.12-0.06-0.19c-0.02-0.11,0-0.22,0-0.34c0-0.2,0.02-0.38-0.08-0.55c-0.38-0.69-1.24-0.93-1.97-0.79
					c-0.18,0.03-0.29,0.13-0.44,0.21c-0.17,0.09-0.14,0.17-0.32,0.22c-0.08,0.03-0.22,0.12-0.21,0.22c0,0.12,0,0.05,0.01,0.17
					c-0.02,0.01-0.02,0-0.03-0.03"/>
				<path class="st2" d="M15.82-18.08c0.02,0.07,0.01,0.13-0.03,0.19c-0.05,0.1-0.11,0.06-0.16,0.13c-0.05,0.06-0.1,0.28-0.08,0.36
					c-0.17,0.06-0.01,0.23-0.02,0.35c0,0.05-0.04,0.11-0.05,0.16c-0.01,0.12,0.02,0.27,0.07,0.37c0.1,0.2,0.27,0.41,0.44,0.54
					c0.19,0.15,0.36,0.57,0.61,0.63c0.18,0.04,0.38-0.1,0.54-0.14c0.18-0.04,0.4,0.01,0.57-0.05c0.22-0.08,0.13-0.34,0.29-0.45
					c0.1-0.07,0.29-0.01,0.41-0.05c0.2-0.07,0.34-0.26,0.38-0.46c0.02-0.08,0.01-0.14,0.04-0.22c0.04-0.1,0.11-0.16,0.09-0.29
					c-0.01-0.06-0.05-0.12-0.06-0.19c-0.02-0.11,0-0.22,0-0.34c0-0.2,0.02-0.38-0.08-0.55c-0.38-0.69-1.24-0.93-1.97-0.79
					c-0.18,0.03-0.29,0.13-0.44,0.21c-0.17,0.09-0.14,0.17-0.32,0.22c-0.08,0.03-0.22,0.12-0.21,0.22c0,0.12,0,0.05,0.01,0.17
					c-0.02,0.01-0.02,0-0.03-0.03"/>
				<path class="st2" d="M8.16-18.08c0.02,0.07,0.01,0.13-0.03,0.19c-0.05,0.1-0.11,0.06-0.17,0.13c-0.05,0.06-0.1,0.28-0.08,0.36
					c-0.17,0.06-0.01,0.23-0.02,0.35c0,0.05-0.04,0.11-0.04,0.16c-0.01,0.12,0.02,0.27,0.07,0.37c0.1,0.2,0.27,0.41,0.44,0.54
					c0.19,0.15,0.36,0.57,0.61,0.63c0.18,0.04,0.38-0.1,0.54-0.14c0.18-0.04,0.4,0.01,0.57-0.05c0.22-0.08,0.13-0.34,0.29-0.45
					c0.1-0.07,0.29-0.01,0.41-0.05c0.2-0.07,0.34-0.26,0.38-0.46c0.02-0.08,0.01-0.14,0.04-0.22c0.04-0.1,0.11-0.16,0.09-0.29
					c-0.01-0.06-0.05-0.12-0.06-0.19c-0.02-0.11,0-0.22,0-0.34c0-0.2,0.02-0.38-0.08-0.55c-0.38-0.69-1.24-0.93-1.97-0.79
					c-0.18,0.03-0.29,0.13-0.44,0.21c-0.17,0.09-0.14,0.17-0.32,0.22c-0.08,0.03-0.22,0.12-0.21,0.22c0,0.12,0,0.05,0.01,0.17
					c-0.02,0.01-0.02,0-0.03-0.03"/>
				<path class="st2" d="M0.5-18.08c0.02,0.07,0.01,0.13-0.03,0.19c-0.05,0.1-0.11,0.06-0.17,0.13c-0.05,0.06-0.1,0.28-0.08,0.36
					c-0.17,0.06-0.01,0.23-0.02,0.35c0,0.05-0.04,0.11-0.04,0.16c-0.01,0.12,0.02,0.27,0.07,0.37c0.1,0.2,0.27,0.41,0.44,0.54
					c0.19,0.15,0.36,0.57,0.61,0.63c0.18,0.04,0.38-0.1,0.54-0.14c0.18-0.04,0.4,0.01,0.57-0.05c0.22-0.08,0.13-0.34,0.29-0.45
					c0.1-0.07,0.29-0.01,0.41-0.05c0.2-0.07,0.34-0.26,0.38-0.46c0.02-0.08,0.01-0.14,0.04-0.22c0.04-0.1,0.11-0.16,0.09-0.29
					c-0.01-0.06-0.05-0.12-0.06-0.19c-0.02-0.11,0-0.22,0-0.34c0-0.2,0.02-0.38-0.08-0.55c-0.38-0.69-1.24-0.93-1.97-0.79
					c-0.18,0.03-0.29,0.13-0.44,0.21c-0.17,0.09-0.14,0.17-0.32,0.22c-0.08,0.03-0.22,0.12-0.21,0.22c0,0.12,0,0.05,0.01,0.17
					c-0.02,0.01-0.02,0-0.03-0.03"/>
			</g>
			<g>
				<path class="st2" d="M69.44-10.43c0.02,0.07,0.01,0.13-0.03,0.19c-0.05,0.1-0.11,0.06-0.17,0.13c-0.05,0.06-0.1,0.28-0.08,0.36
					C69-9.69,69.16-9.52,69.15-9.4c0,0.05-0.04,0.11-0.04,0.16c-0.01,0.12,0.02,0.27,0.07,0.37c0.1,0.2,0.27,0.41,0.43,0.54
					c0.19,0.15,0.36,0.57,0.61,0.63c0.18,0.04,0.38-0.1,0.54-0.14c0.18-0.04,0.4,0.01,0.57-0.05c0.22-0.08,0.13-0.34,0.29-0.45
					c0.1-0.07,0.29-0.01,0.41-0.05c0.2-0.07,0.34-0.26,0.38-0.46c0.02-0.08,0.01-0.14,0.04-0.22c0.04-0.1,0.11-0.16,0.09-0.29
					c-0.01-0.06-0.05-0.12-0.06-0.19c-0.02-0.11,0-0.22,0-0.34c0-0.2,0.02-0.38-0.08-0.55c-0.38-0.69-1.24-0.93-1.97-0.79
					c-0.18,0.03-0.29,0.13-0.44,0.21c-0.17,0.09-0.14,0.17-0.32,0.22c-0.08,0.03-0.22,0.12-0.21,0.22c0,0.12,0,0.05,0.01,0.17
					c-0.02,0.01-0.02,0-0.03-0.03"/>
				<path class="st2" d="M61.78-10.43c0.02,0.07,0.01,0.13-0.03,0.19c-0.05,0.1-0.11,0.06-0.17,0.13c-0.05,0.06-0.1,0.28-0.08,0.36
					c-0.17,0.06-0.01,0.23-0.02,0.35c0,0.05-0.04,0.11-0.04,0.16c-0.01,0.12,0.02,0.27,0.07,0.37c0.1,0.2,0.27,0.41,0.44,0.54
					c0.19,0.15,0.36,0.57,0.61,0.63c0.18,0.04,0.38-0.1,0.54-0.14c0.18-0.04,0.4,0.01,0.57-0.05c0.22-0.08,0.13-0.34,0.29-0.45
					c0.1-0.07,0.29-0.01,0.41-0.05c0.2-0.07,0.34-0.26,0.38-0.46c0.02-0.08,0.01-0.14,0.04-0.22c0.04-0.1,0.11-0.16,0.09-0.29
					c-0.01-0.06-0.05-0.12-0.06-0.19c-0.02-0.11,0-0.22,0-0.34c0-0.2,0.02-0.38-0.08-0.55c-0.38-0.69-1.24-0.93-1.97-0.79
					c-0.18,0.03-0.29,0.13-0.44,0.21c-0.17,0.09-0.14,0.17-0.32,0.22c-0.08,0.03-0.22,0.12-0.21,0.22c0,0.12,0,0.05,0.01,0.17
					c-0.02,0.01-0.02,0-0.03-0.03"/>
				<path class="st2" d="M54.12-10.43c0.02,0.07,0.01,0.13-0.03,0.19c-0.05,0.1-0.11,0.06-0.17,0.13c-0.05,0.06-0.1,0.28-0.08,0.36
					c-0.17,0.06-0.01,0.23-0.02,0.35c0,0.05-0.04,0.11-0.04,0.16c-0.01,0.12,0.02,0.27,0.07,0.37c0.1,0.2,0.27,0.41,0.44,0.54
					c0.19,0.15,0.36,0.57,0.61,0.63c0.18,0.04,0.38-0.1,0.54-0.14c0.18-0.04,0.4,0.01,0.57-0.05c0.22-0.08,0.13-0.34,0.29-0.45
					c0.1-0.07,0.29-0.01,0.41-0.05c0.2-0.07,0.34-0.26,0.38-0.46C57.1-8.93,57.09-9,57.12-9.07c0.04-0.1,0.11-0.16,0.09-0.29
					c-0.01-0.06-0.05-0.12-0.06-0.19c-0.02-0.11,0-0.22,0-0.34c0-0.2,0.02-0.38-0.08-0.55c-0.38-0.69-1.24-0.93-1.97-0.79
					c-0.18,0.03-0.29,0.13-0.44,0.21c-0.17,0.09-0.14,0.17-0.32,0.22c-0.08,0.03-0.22,0.12-0.21,0.22c0,0.12,0,0.05,0.01,0.17
					c-0.02,0.01-0.02,0-0.03-0.03"/>
				<path class="st2" d="M46.46-10.43c0.02,0.07,0.01,0.13-0.03,0.19c-0.05,0.1-0.11,0.06-0.16,0.13c-0.05,0.06-0.1,0.28-0.08,0.36
					c-0.17,0.06-0.01,0.23-0.02,0.35c0,0.05-0.04,0.11-0.05,0.16c-0.01,0.12,0.02,0.27,0.07,0.37c0.1,0.2,0.27,0.41,0.44,0.54
					c0.19,0.15,0.36,0.57,0.61,0.63c0.18,0.04,0.38-0.1,0.54-0.14c0.18-0.04,0.4,0.01,0.57-0.05c0.22-0.08,0.13-0.34,0.29-0.45
					c0.1-0.07,0.29-0.01,0.41-0.05c0.2-0.07,0.34-0.26,0.38-0.46c0.02-0.08,0.01-0.14,0.04-0.22c0.04-0.1,0.11-0.16,0.09-0.29
					c-0.01-0.06-0.05-0.12-0.06-0.19c-0.02-0.11,0-0.22,0-0.34c0-0.2,0.02-0.38-0.08-0.55c-0.38-0.69-1.24-0.93-1.97-0.79
					c-0.18,0.03-0.29,0.13-0.44,0.21c-0.17,0.09-0.14,0.17-0.32,0.22c-0.08,0.03-0.22,0.12-0.21,0.22c0,0.12,0,0.05,0.01,0.17
					c-0.02,0.01-0.02,0-0.03-0.03"/>
				<path class="st2" d="M38.8-10.43c0.02,0.07,0.01,0.13-0.03,0.19c-0.05,0.1-0.11,0.06-0.17,0.13c-0.05,0.06-0.1,0.28-0.08,0.36
					c-0.17,0.06-0.01,0.23-0.02,0.35c0,0.05-0.04,0.11-0.04,0.16c-0.01,0.12,0.02,0.27,0.07,0.37c0.1,0.2,0.27,0.41,0.44,0.54
					c0.19,0.15,0.36,0.57,0.61,0.63c0.18,0.04,0.38-0.1,0.54-0.14c0.18-0.04,0.4,0.01,0.57-0.05c0.22-0.08,0.13-0.34,0.29-0.45
					c0.1-0.07,0.29-0.01,0.41-0.05c0.2-0.07,0.34-0.26,0.38-0.46C41.78-8.93,41.77-9,41.8-9.07c0.04-0.1,0.11-0.16,0.09-0.29
					c-0.01-0.06-0.05-0.12-0.06-0.19c-0.02-0.11,0-0.22,0-0.34c0-0.2,0.02-0.38-0.08-0.55c-0.38-0.69-1.24-0.93-1.97-0.79
					c-0.18,0.03-0.29,0.13-0.44,0.21c-0.17,0.09-0.14,0.17-0.32,0.22c-0.08,0.03-0.22,0.12-0.21,0.22c0,0.12,0,0.05,0.01,0.17
					c-0.02,0.01-0.02,0-0.03-0.03"/>
				<path class="st2" d="M31.14-10.43c0.02,0.07,0.01,0.13-0.03,0.19c-0.05,0.1-0.11,0.06-0.16,0.13c-0.05,0.06-0.1,0.28-0.08,0.36
					c-0.17,0.06-0.01,0.23-0.02,0.35c0,0.05-0.04,0.11-0.05,0.16c-0.01,0.12,0.02,0.27,0.07,0.37c0.1,0.2,0.27,0.41,0.44,0.54
					c0.19,0.15,0.36,0.57,0.61,0.63c0.18,0.04,0.38-0.1,0.54-0.14c0.18-0.04,0.4,0.01,0.57-0.05c0.22-0.08,0.13-0.34,0.29-0.45
					c0.1-0.07,0.29-0.01,0.41-0.05c0.2-0.07,0.34-0.26,0.38-0.46c0.02-0.08,0.01-0.14,0.04-0.22c0.04-0.1,0.11-0.16,0.09-0.29
					c-0.01-0.06-0.05-0.12-0.06-0.19c-0.02-0.11,0-0.22,0-0.34c0-0.2,0.02-0.38-0.08-0.55c-0.38-0.69-1.24-0.93-1.97-0.79
					c-0.18,0.03-0.29,0.13-0.44,0.21c-0.17,0.09-0.14,0.17-0.32,0.22c-0.08,0.03-0.22,0.12-0.21,0.22c0,0.12,0,0.05,0.01,0.17
					c-0.02,0.01-0.02,0-0.03-0.03"/>
				<path class="st2" d="M23.48-10.43c0.02,0.07,0.01,0.13-0.03,0.19c-0.05,0.1-0.11,0.06-0.17,0.13c-0.05,0.06-0.1,0.28-0.08,0.36
					c-0.17,0.06-0.01,0.23-0.02,0.35c0,0.05-0.04,0.11-0.04,0.16c-0.01,0.12,0.02,0.27,0.07,0.37c0.1,0.2,0.27,0.41,0.44,0.54
					c0.19,0.15,0.36,0.57,0.61,0.63c0.18,0.04,0.38-0.1,0.54-0.14c0.18-0.04,0.4,0.01,0.57-0.05c0.22-0.08,0.13-0.34,0.29-0.45
					c0.1-0.07,0.29-0.01,0.41-0.05c0.2-0.07,0.34-0.26,0.38-0.46c0.02-0.08,0.01-0.14,0.04-0.22c0.04-0.1,0.11-0.16,0.09-0.29
					c-0.01-0.06-0.05-0.12-0.06-0.19c-0.02-0.11,0-0.22,0-0.34c0-0.2,0.02-0.38-0.08-0.55c-0.38-0.69-1.24-0.93-1.97-0.79
					c-0.18,0.03-0.29,0.13-0.44,0.21c-0.17,0.09-0.14,0.17-0.32,0.22c-0.08,0.03-0.22,0.12-0.21,0.22c0,0.12,0,0.05,0.01,0.17
					c-0.02,0.01-0.02,0-0.03-0.03"/>
				<path class="st2" d="M15.82-10.43c0.02,0.07,0.01,0.13-0.03,0.19c-0.05,0.1-0.11,0.06-0.16,0.13c-0.05,0.06-0.1,0.28-0.08,0.36
					c-0.17,0.06-0.01,0.23-0.02,0.35c0,0.05-0.04,0.11-0.05,0.16c-0.01,0.12,0.02,0.27,0.07,0.37c0.1,0.2,0.27,0.41,0.44,0.54
					c0.19,0.15,0.36,0.57,0.61,0.63c0.18,0.04,0.38-0.1,0.54-0.14c0.18-0.04,0.4,0.01,0.57-0.05c0.22-0.08,0.13-0.34,0.29-0.45
					c0.1-0.07,0.29-0.01,0.41-0.05c0.2-0.07,0.34-0.26,0.38-0.46C18.8-8.93,18.79-9,18.82-9.07c0.04-0.1,0.11-0.16,0.09-0.29
					c-0.01-0.06-0.05-0.12-0.06-0.19c-0.02-0.11,0-0.22,0-0.34c0-0.2,0.02-0.38-0.08-0.55c-0.38-0.69-1.24-0.93-1.97-0.79
					c-0.18,0.03-0.29,0.13-0.44,0.21c-0.17,0.09-0.14,0.17-0.32,0.22c-0.08,0.03-0.22,0.12-0.21,0.22c0,0.12,0,0.05,0.01,0.17
					c-0.02,0.01-0.02,0-0.03-0.03"/>
				<path class="st2" d="M8.16-10.43c0.02,0.07,0.01,0.13-0.03,0.19c-0.05,0.1-0.11,0.06-0.17,0.13c-0.05,0.06-0.1,0.28-0.08,0.36
					C7.72-9.69,7.88-9.52,7.87-9.4c0,0.05-0.04,0.11-0.04,0.16C7.82-9.12,7.84-8.97,7.89-8.87c0.1,0.2,0.27,0.41,0.44,0.54
					c0.19,0.15,0.36,0.57,0.61,0.63c0.18,0.04,0.38-0.1,0.54-0.14c0.18-0.04,0.4,0.01,0.57-0.05c0.22-0.08,0.13-0.34,0.29-0.45
					c0.1-0.07,0.29-0.01,0.41-0.05c0.2-0.07,0.34-0.26,0.38-0.46c0.02-0.08,0.01-0.14,0.04-0.22c0.04-0.1,0.11-0.16,0.09-0.29
					c-0.01-0.06-0.05-0.12-0.06-0.19c-0.02-0.11,0-0.22,0-0.34c0-0.2,0.02-0.38-0.08-0.55c-0.38-0.69-1.24-0.93-1.97-0.79
					c-0.18,0.03-0.29,0.13-0.44,0.21c-0.17,0.09-0.14,0.17-0.32,0.22c-0.08,0.03-0.22,0.12-0.21,0.22c0,0.12,0,0.05,0.01,0.17
					c-0.02,0.01-0.02,0-0.03-0.03"/>
				<path class="st2" d="M0.5-10.43c0.02,0.07,0.01,0.13-0.03,0.19c-0.05,0.1-0.11,0.06-0.17,0.13c-0.05,0.06-0.1,0.28-0.08,0.36
					C0.06-9.69,0.22-9.52,0.21-9.4c0,0.05-0.04,0.11-0.04,0.16C0.16-9.12,0.18-8.97,0.23-8.87c0.1,0.2,0.27,0.41,0.44,0.54
					c0.19,0.15,0.36,0.57,0.61,0.63c0.18,0.04,0.38-0.1,0.54-0.14C2-7.88,2.22-7.83,2.39-7.89c0.22-0.08,0.13-0.34,0.29-0.45
					c0.1-0.07,0.29-0.01,0.41-0.05c0.2-0.07,0.34-0.26,0.38-0.46C3.48-8.93,3.47-9,3.5-9.07c0.04-0.1,0.11-0.16,0.09-0.29
					C3.58-9.43,3.54-9.48,3.53-9.55c-0.02-0.11,0-0.22,0-0.34c0-0.2,0.02-0.38-0.08-0.55c-0.38-0.69-1.24-0.93-1.97-0.79
					c-0.18,0.03-0.29,0.13-0.44,0.21c-0.17,0.09-0.14,0.17-0.32,0.22c-0.08,0.03-0.22,0.12-0.21,0.22c0,0.12,0,0.05,0.01,0.17
					c-0.02,0.01-0.02,0-0.03-0.03"/>
			</g>
		</g>
		<g>
			<path class="st2" d="M69.44-2.78c0.02,0.07,0.01,0.13-0.03,0.19c-0.05,0.1-0.11,0.06-0.17,0.13c-0.05,0.06-0.1,0.28-0.08,0.36
				C69-2.04,69.16-1.87,69.15-1.75c0,0.05-0.04,0.11-0.04,0.16c-0.01,0.12,0.02,0.27,0.07,0.37c0.1,0.2,0.27,0.41,0.43,0.54
				c0.19,0.15,0.36,0.57,0.61,0.63C70.4,0,70.6-0.15,70.76-0.18c0.18-0.04,0.4,0.01,0.57-0.05c0.22-0.08,0.13-0.34,0.29-0.45
				c0.1-0.07,0.29-0.01,0.41-0.05C72.23-0.81,72.37-1,72.4-1.2c0.02-0.08,0.01-0.14,0.04-0.22c0.04-0.1,0.11-0.16,0.09-0.29
				c-0.01-0.06-0.05-0.12-0.06-0.19c-0.02-0.11,0-0.22,0-0.34c0-0.2,0.02-0.38-0.08-0.55c-0.38-0.69-1.24-0.93-1.97-0.79
				c-0.18,0.03-0.29,0.13-0.44,0.21c-0.17,0.09-0.14,0.17-0.32,0.22c-0.08,0.03-0.22,0.12-0.21,0.22c0,0.12,0,0.05,0.01,0.17
				c-0.02,0.01-0.02,0-0.03-0.03"/>
			<path class="st2" d="M61.78-2.78c0.02,0.07,0.01,0.13-0.03,0.19c-0.05,0.1-0.11,0.06-0.17,0.13c-0.05,0.06-0.1,0.28-0.08,0.36
				c-0.17,0.06-0.01,0.23-0.02,0.35c0,0.05-0.04,0.11-0.04,0.16c-0.01,0.12,0.02,0.27,0.07,0.37c0.1,0.2,0.27,0.41,0.44,0.54
				c0.19,0.15,0.36,0.57,0.61,0.63c0.18,0.04,0.38-0.1,0.54-0.14c0.18-0.04,0.4,0.01,0.57-0.05c0.22-0.08,0.13-0.34,0.29-0.45
				c0.1-0.07,0.29-0.01,0.41-0.05c0.2-0.07,0.34-0.26,0.38-0.46c0.02-0.08,0.01-0.14,0.04-0.22c0.04-0.1,0.11-0.16,0.09-0.29
				c-0.01-0.06-0.05-0.12-0.06-0.19c-0.02-0.11,0-0.22,0-0.34c0-0.2,0.02-0.38-0.08-0.55c-0.38-0.69-1.24-0.93-1.97-0.79
				c-0.18,0.03-0.29,0.13-0.44,0.21C62.14-3.28,62.18-3.2,62-3.14c-0.08,0.03-0.22,0.12-0.21,0.22c0,0.12,0,0.05,0.01,0.17
				c-0.02,0.01-0.02,0-0.03-0.03"/>
			<path class="st2" d="M54.12-2.78c0.02,0.07,0.01,0.13-0.03,0.19c-0.05,0.1-0.11,0.06-0.17,0.13c-0.05,0.06-0.1,0.28-0.08,0.36
				c-0.17,0.06-0.01,0.23-0.02,0.35c0,0.05-0.04,0.11-0.04,0.16c-0.01,0.12,0.02,0.27,0.07,0.37c0.1,0.2,0.27,0.41,0.44,0.54
				c0.19,0.15,0.36,0.57,0.61,0.63c0.18,0.04,0.38-0.1,0.54-0.14c0.18-0.04,0.4,0.01,0.57-0.05c0.22-0.08,0.13-0.34,0.29-0.45
				c0.1-0.07,0.29-0.01,0.41-0.05c0.2-0.07,0.34-0.26,0.38-0.46c0.02-0.08,0.01-0.14,0.04-0.22c0.04-0.1,0.11-0.16,0.09-0.29
				c-0.01-0.06-0.05-0.12-0.06-0.19c-0.02-0.11,0-0.22,0-0.34c0-0.2,0.02-0.38-0.08-0.55c-0.38-0.69-1.24-0.93-1.97-0.79
				c-0.18,0.03-0.29,0.13-0.44,0.21c-0.17,0.09-0.14,0.17-0.32,0.22c-0.08,0.03-0.22,0.12-0.21,0.22c0,0.12,0,0.05,0.01,0.17
				c-0.02,0.01-0.02,0-0.03-0.03"/>
			<path class="st2" d="M46.46-2.78c0.02,0.07,0.01,0.13-0.03,0.19c-0.05,0.1-0.11,0.06-0.16,0.13c-0.05,0.06-0.1,0.28-0.08,0.36
				c-0.17,0.06-0.01,0.23-0.02,0.35c0,0.05-0.04,0.11-0.05,0.16c-0.01,0.12,0.02,0.27,0.07,0.37c0.1,0.2,0.27,0.41,0.44,0.54
				C46.82-0.52,47-0.1,47.24-0.04c0.18,0.04,0.38-0.1,0.54-0.14c0.18-0.04,0.4,0.01,0.57-0.05c0.22-0.08,0.13-0.34,0.29-0.45
				c0.1-0.07,0.29-0.01,0.41-0.05c0.2-0.07,0.34-0.26,0.38-0.46c0.02-0.08,0.01-0.14,0.04-0.22c0.04-0.1,0.11-0.16,0.09-0.29
				c-0.01-0.06-0.05-0.12-0.06-0.19c-0.02-0.11,0-0.22,0-0.34c0-0.2,0.02-0.38-0.08-0.55c-0.38-0.69-1.24-0.93-1.97-0.79
				c-0.18,0.03-0.29,0.13-0.44,0.21c-0.17,0.09-0.14,0.17-0.32,0.22c-0.08,0.03-0.22,0.12-0.21,0.22c0,0.12,0,0.05,0.01,0.17
				c-0.02,0.01-0.02,0-0.03-0.03"/>
			<path class="st2" d="M38.8-2.78c0.02,0.07,0.01,0.13-0.03,0.19c-0.05,0.1-0.11,0.06-0.17,0.13c-0.05,0.06-0.1,0.28-0.08,0.36
				c-0.17,0.06-0.01,0.23-0.02,0.35c0,0.05-0.04,0.11-0.04,0.16c-0.01,0.12,0.02,0.27,0.07,0.37c0.1,0.2,0.27,0.41,0.44,0.54
				c0.19,0.15,0.36,0.57,0.61,0.63c0.18,0.04,0.38-0.1,0.54-0.14c0.18-0.04,0.4,0.01,0.57-0.05c0.22-0.08,0.13-0.34,0.29-0.45
				c0.1-0.07,0.29-0.01,0.41-0.05c0.2-0.07,0.34-0.26,0.38-0.46c0.02-0.08,0.01-0.14,0.04-0.22c0.04-0.1,0.11-0.16,0.09-0.29
				c-0.01-0.06-0.05-0.12-0.06-0.19c-0.02-0.11,0-0.22,0-0.34c0-0.2,0.02-0.38-0.08-0.55c-0.38-0.69-1.24-0.93-1.97-0.79
				c-0.18,0.03-0.29,0.13-0.44,0.21c-0.17,0.09-0.14,0.17-0.32,0.22c-0.08,0.03-0.22,0.12-0.21,0.22c0,0.12,0,0.05,0.01,0.17
				c-0.02,0.01-0.02,0-0.03-0.03"/>
			<path class="st2" d="M31.14-2.78c0.02,0.07,0.01,0.13-0.03,0.19c-0.05,0.1-0.11,0.06-0.16,0.13c-0.05,0.06-0.1,0.28-0.08,0.36
				c-0.17,0.06-0.01,0.23-0.02,0.35c0,0.05-0.04,0.11-0.05,0.16c-0.01,0.12,0.02,0.27,0.07,0.37c0.1,0.2,0.27,0.41,0.44,0.54
				c0.19,0.15,0.36,0.57,0.61,0.63C32.1,0,32.3-0.15,32.46-0.18c0.18-0.04,0.4,0.01,0.57-0.05c0.22-0.08,0.13-0.34,0.29-0.45
				c0.1-0.07,0.29-0.01,0.41-0.05C33.93-0.81,34.07-1,34.1-1.2c0.02-0.08,0.01-0.14,0.04-0.22c0.04-0.1,0.11-0.16,0.09-0.29
				c-0.01-0.06-0.05-0.12-0.06-0.19c-0.02-0.11,0-0.22,0-0.34c0-0.2,0.02-0.38-0.08-0.55c-0.38-0.69-1.24-0.93-1.97-0.79
				c-0.18,0.03-0.29,0.13-0.44,0.21c-0.17,0.09-0.14,0.17-0.32,0.22c-0.08,0.03-0.22,0.12-0.21,0.22c0,0.12,0,0.05,0.01,0.17
				c-0.02,0.01-0.02,0-0.03-0.03"/>
			<path class="st2" d="M23.48-2.78c0.02,0.07,0.01,0.13-0.03,0.19c-0.05,0.1-0.11,0.06-0.17,0.13c-0.05,0.06-0.1,0.28-0.08,0.36
				c-0.17,0.06-0.01,0.23-0.02,0.35c0,0.05-0.04,0.11-0.04,0.16c-0.01,0.12,0.02,0.27,0.07,0.37c0.1,0.2,0.27,0.41,0.44,0.54
				c0.19,0.15,0.36,0.57,0.61,0.63c0.18,0.04,0.38-0.1,0.54-0.14c0.18-0.04,0.4,0.01,0.57-0.05c0.22-0.08,0.13-0.34,0.29-0.45
				c0.1-0.07,0.29-0.01,0.41-0.05c0.2-0.07,0.34-0.26,0.38-0.46c0.02-0.08,0.01-0.14,0.04-0.22c0.04-0.1,0.11-0.16,0.09-0.29
				c-0.01-0.06-0.05-0.12-0.06-0.19c-0.02-0.11,0-0.22,0-0.34c0-0.2,0.02-0.38-0.08-0.55c-0.38-0.69-1.24-0.93-1.97-0.79
				c-0.18,0.03-0.29,0.13-0.44,0.21c-0.17,0.09-0.14,0.17-0.32,0.22c-0.08,0.03-0.22,0.12-0.21,0.22c0,0.12,0,0.05,0.01,0.17
				c-0.02,0.01-0.02,0-0.03-0.03"/>
			<path class="st2" d="M15.82-2.78c0.02,0.07,0.01,0.13-0.03,0.19c-0.05,0.1-0.11,0.06-0.16,0.13c-0.05,0.06-0.1,0.28-0.08,0.36
				c-0.17,0.06-0.01,0.23-0.02,0.35c0,0.05-0.04,0.11-0.05,0.16c-0.01,0.12,0.02,0.27,0.07,0.37c0.1,0.2,0.27,0.41,0.44,0.54
				c0.19,0.15,0.36,0.57,0.61,0.63c0.18,0.04,0.38-0.1,0.54-0.14c0.18-0.04,0.4,0.01,0.57-0.05c0.22-0.08,0.13-0.34,0.29-0.45
				c0.1-0.07,0.29-0.01,0.41-0.05c0.2-0.07,0.34-0.26,0.38-0.46c0.02-0.08,0.01-0.14,0.04-0.22c0.04-0.1,0.11-0.16,0.09-0.29
				c-0.01-0.06-0.05-0.12-0.06-0.19c-0.02-0.11,0-0.22,0-0.34c0-0.2,0.02-0.38-0.08-0.55c-0.38-0.69-1.24-0.93-1.97-0.79
				c-0.18,0.03-0.29,0.13-0.44,0.21c-0.17,0.09-0.14,0.17-0.32,0.22c-0.08,0.03-0.22,0.12-0.21,0.22c0,0.12,0,0.05,0.01,0.17
				c-0.02,0.01-0.02,0-0.03-0.03"/>
			<path class="st2" d="M8.16-2.78c0.02,0.07,0.01,0.13-0.03,0.19c-0.05,0.1-0.11,0.06-0.17,0.13C7.91-2.4,7.87-2.18,7.89-2.1
				C7.72-2.04,7.88-1.87,7.87-1.75c0,0.05-0.04,0.11-0.04,0.16C7.82-1.47,7.84-1.32,7.89-1.22c0.1,0.2,0.27,0.41,0.44,0.54
				C8.52-0.52,8.69-0.1,8.94-0.04C9.11,0,9.32-0.15,9.48-0.18c0.18-0.04,0.4,0.01,0.57-0.05c0.22-0.08,0.13-0.34,0.29-0.45
				c0.1-0.07,0.29-0.01,0.41-0.05c0.2-0.07,0.34-0.26,0.38-0.46c0.02-0.08,0.01-0.14,0.04-0.22c0.04-0.1,0.11-0.16,0.09-0.29
				c-0.01-0.06-0.05-0.12-0.06-0.19c-0.02-0.11,0-0.22,0-0.34c0-0.2,0.02-0.38-0.08-0.55c-0.38-0.69-1.24-0.93-1.97-0.79
				C8.95-3.54,8.85-3.45,8.69-3.37C8.52-3.28,8.55-3.2,8.37-3.14C8.29-3.12,8.16-3.02,8.16-2.92c0,0.12,0,0.05,0.01,0.17
				c-0.02,0.01-0.02,0-0.03-0.03"/>
			<path class="st2" d="M0.5-2.78C0.51-2.71,0.5-2.65,0.47-2.59C0.42-2.49,0.36-2.53,0.3-2.46C0.25-2.4,0.21-2.18,0.23-2.1
				C0.06-2.04,0.21-1.87,0.21-1.75c0,0.05-0.04,0.11-0.04,0.16C0.15-1.47,0.18-1.32,0.23-1.22c0.1,0.2,0.27,0.41,0.44,0.54
				C0.86-0.52,1.03-0.1,1.28-0.04C1.45,0,1.66-0.15,1.82-0.18C2-0.23,2.22-0.17,2.39-0.24c0.22-0.08,0.13-0.34,0.29-0.45
				c0.1-0.07,0.29-0.01,0.41-0.05C3.28-0.81,3.42-1,3.46-1.2C3.48-1.28,3.47-1.34,3.5-1.42c0.04-0.1,0.11-0.16,0.09-0.29
				C3.58-1.77,3.54-1.83,3.53-1.9c-0.02-0.11,0-0.22,0-0.34c0-0.2,0.02-0.38-0.08-0.55C3.07-3.47,2.21-3.71,1.47-3.57
				C1.29-3.54,1.19-3.45,1.03-3.37C0.86-3.28,0.89-3.2,0.71-3.14C0.63-3.12,0.5-3.02,0.5-2.92c0,0.12,0,0.05,0.01,0.17
				c-0.02,0.01-0.02,0-0.03-0.03"/>
		</g>
	</g>
</pattern>
<g>
	<g>
		<path class="st2" d="M41.39,19.2c-0.29-2.12,2.29-3.36,1.71-5.67c-0.49-1.97-3-2.78-3.8-4.65c-0.62-1.46-0.05-3.24-0.76-4.65
			c-0.29-0.56-0.75-1.01-1.25-1.41c-3.24-2.59-7.59-2.98-11.58-2.62c-3.4,0.31-7.95,0.83-8.51,5.11c-1.02,0.09-2.05,0.19-3.07,0.28
			c-0.53,0.05-1.09,0.11-1.56,0.33c-0.17-0.05-0.37-0.03-0.52,0.15c-2.26,2.6-4.58,5.3-5.81,8.57c-0.56,1.5-0.89,3.21-0.48,4.79
			c0.41,1.59,1.53,2.65,2.87,3.51c0.87,0.56,2,1.18,2.79,2.01c0.24,0.58,0.61,1.42,0.91,1.93c0.01,0.09,0.01,0.17,0.01,0.26
			c-0.01,0.19,0.09,0.33,0.21,0.41c-0.79,1.2-1.27,2.77-0.58,4.12c0.99,1.92,2.47,3.36,4.51,3.92c1.52,0.42,2.53,1.25,3.44,2.43
			c1.7,2.21,3.75,4.25,6.24,5.57c1.24,0.66,2.54,1.2,3.95,1.13c1.18-0.06,2.71-0.13,3.79-0.65c0.95-0.45,1.89-1.29,2.64-2.02
			c1.52-1.48,2.09-3.11,2.66-5.12c0.31-1.12,0.6-2.22,0.74-3.37c0.15-1.16,0.28-2.32,0.39-3.48c0.04-0.45,0.09-0.9,0.56-1.01
			c0.52-0.12,0.73-0.5,0.98-0.86c0.41-0.59,0.77-1.22,1.22-1.78c0.85-1.06,1.18-2.26,1.1-3.6c-0.07-1.01-0.32-1.96-1-2.73
			C42.71,19.58,42.06,19.33,41.39,19.2z M32.24,15.75c0.71,0.31,1.54,0.03,2.37,0.32c-1.5,0.55-3.58-0.07-4.44-1.4
			C30.85,15.04,31.53,15.44,32.24,15.75z M7.38,20.68c-2.23-2.83,0.11-7.07,1.81-9.54c0.2-0.29,0.42-0.58,0.63-0.86
			c-0.74,1.62-1.39,3.27-1.94,4.97c-0.58,1.8-1.21,4.19,0.5,5.43c0.66,0.48,1.41,0.48,1.97,1.21c0.32,0.43,0.45,0.92,0.56,1.42
			C9.73,22.45,8.31,21.86,7.38,20.68z M17.37,34.78c-2.28-0.67-4.94-2.78-4.37-5.44c0.06-0.28,0.12-0.49,0.33-0.68
			c0.45-0.4,0.66-0.39,0.98,0.15c0.38,0.65,0.76,1.31,1.05,2.01c0.28,0.67,0.69,1.22,1.02,1.85c0.2,0.37,0.35,0.77,0.55,1.14
			c0.09,0.17,0.4,0.96,0.58,1.01C17.47,34.81,17.42,34.8,17.37,34.78z M39.18,30.91c0.02,1.06-0.11,2.12-0.17,3.18
			c-0.03,0.59-0.12,1.19-0.27,1.76c-0.1,0.37-0.2,0.8-0.33,1.19c-0.06,0.18-0.13,0.35-0.21,0.51c-0.46,0.91-0.85,1.9-1.53,2.68
			c-0.4,0.45-0.8,0.89-1.19,1.34c-0.36,0.27-0.71,0.53-1.08,0.77c-0.05,0.03-0.1,0.07-0.15,0.1c-0.01,0.01-0.02,0.01-0.03,0.02
			c-0.74,0.46-1.53,0.81-2.46,0.94c-1.57,0.22-2.96-0.26-4.28-0.9c-3.87-1.88-6.7-4.89-8.83-8.59c-0.77-1.33-1.6-2.64-2.12-4.1
			c-0.42-1.19-0.75-2.38-0.87-3.66c-0.12-1.21-0.6-2.29-0.69-3.49c-0.11-1.35,0-2.71,0.17-4.04c0.32-2.54-0.01-4.81,2.97-5.49
			c0.87-0.2,1.8-0.33,2.53-0.84c0.59-0.41,0.99-1.03,1.54-1.49c1.77-1.49,3.74,1.08,4.85,2.33C28,14.22,29,15,30.07,15.96
			c1.1,0.97,2.43,1.33,3.94,1.48c-1.19,0.68-2.31,1.36-3.47,1.96c-0.38,0.2-0.69,0.47-1.04,0.69c-0.14,0.09-0.25,0.21-0.18,0.36
			c0.08,0.18,0.28,0.35,0.45,0.26c0.62-0.35,1.36-0.42,1.96-0.77c0.39-0.23,0.79-0.41,1.18-0.64c0.28-0.16,0.51-0.3,0.8,0.01
			c0.11,0.12,0.34,0.13,0.52,0.18c0.28,0.07,0.53-0.01,0.73-0.22c0.22-0.24,0.09-0.47-0.03-0.72c-0.32-0.66-0.14-0.93,0.58-0.95
			c1.52-0.04,2.13,0.38,2.64,1.81c0.33,0.94,0.44,1.92,0.61,2.9C39.23,25.16,39.13,28.04,39.18,30.91z M43.35,23.05
			c-0.03,0.85-0.3,1.64-0.68,2.38c-0.48,0.92-1.23,1.75-2.08,2.25c0.39-1.29,0.06-2.49,0.15-3.68c0.06-0.79,0-1.57-0.06-2.35
			c-0.02-0.33-0.23-0.76,0.14-0.94c0.44-0.22,0.98-0.24,1.4,0.09C42.91,21.38,43.38,22.09,43.35,23.05z"/>
		<path class="st2" d="M30.4,30.94c0.51,1.32,0.8,3.02,0.34,4.39c0.6,0.1,0.93-0.1,1.02-0.66c0.21-1.27,0.54-2.54-0.45-3.68
			c-0.19-0.22-0.26-0.54-0.35-0.83c-0.6-1.9-1.48-3.71-1.96-5.66c-0.04-0.15-0.12-0.3-0.31-0.22c-0.08,0.04-0.17,0.17-0.17,0.26
			c0.03,0.52,0.08,1.05,0.24,1.55C29.29,27.72,29.79,29.35,30.4,30.94z"/>
		<path class="st2" d="M31.85,22.25c-0.83,0.13-1.47,0.72-1.33,1.28c0.27,1.04,1.12,1.53,2.38,1.41c0.62-0.06,0.98-0.73,0.87-1.5
			C33.68,22.7,32.72,22.11,31.85,22.25z"/>
		<path class="st2" d="M24.86,24.6c-0.49-0.08-0.99,0.09-1.44,0.28c-0.53,0.22-0.8,0.85-0.69,1.43c0.1,0.5,0.62,1.11,0.98,1.13
			c0.55,0.03,1.59-0.63,1.84-1.16C25.84,25.66,25.47,24.7,24.86,24.6z"/>
		<path class="st2" d="M34.2,36.19c-0.25,0.44-0.58,0.84-1.12,0.89c-1.47,0.11-2.67,0.84-3.85,1.61c-0.22,0.14-0.69,0.13-0.55,0.58
			c0.14,0.44,0.59,0.27,0.89,0.31c0.23,0.03,0.5-0.16,0.74-0.26c1.23-0.51,2.31-1.33,3.59-1.74c0.19-0.06,0.32-0.19,0.41-0.37
			c0.23-0.47,0.46-0.94,0.7-1.42C34.52,35.56,34.37,35.88,34.2,36.19z"/>
		<path class="st2" d="M24.53,21.84c-0.94-0.05-1.63,0.05-2.34,0.24c-0.97,0.27-1.96,0.54-2.99,0.25c-0.24-0.07-0.42-0.07-0.61,0.14
			c-0.27,0.3-0.05,0.57,0.02,0.85c0.08,0.34,0.34,0.22,0.55,0.2c1.11-0.05,2.17-0.4,3.19-0.8C23,22.48,23.8,22.62,24.53,21.84z"/>
		<path class="st2" d="M31.71,40.28c0.07,0.38,0.41,0.23,0.66,0.2c0.22-0.03,0.44-0.1,0.67-0.15c1.1-0.22,1.11-0.23,1.19-1.58
			c-0.65,0.48-1.32,0.8-2.04,0.98C31.92,39.79,31.65,39.98,31.71,40.28z"/>
	</g>
	<g>
		<path class="st2" d="M94.34,23.15c-0.27-0.98-0.59-1.95-0.9-2.93c-0.3-0.98-0.57-1.97-0.95-2.92c-0.69-1.69-1.9-2.86-3.44-3.8
			c-1.62-0.98-3.5-1.74-5.4-1.33c-0.29-0.41-0.59-0.81-0.91-1.2c-1-1.2-2.12-2.4-3.46-3.22c-2.37-1.46-5.16-1.13-7.74-0.45
			c-2.53-0.27-5.28-0.3-7.48,0.52c-0.26,0.09-0.52,0.17-0.77,0.27c-0.36,0.15-0.69,0.35-1.01,0.55c-3.03,1.89-6.14,3.82-8.73,6.29
			c-0.43,0.41-0.87,0.83-1.27,1.27c-0.48,0.53-0.85,1.12-1.28,1.67c-0.22,0.29-0.74,0.65-0.89,0.96c-0.38,0.83,0.4,2.16,1.39,1.92
			c0.04-0.01,0.08-0.01,0.11-0.02c-0.52,1.3-0.83,2.66-0.75,4.09c0.1,1.8,0.89,3.93,2.56,4.79c-0.6,1.36-0.66,2.67,0.28,4.02
			c0.45,0.65,1.15,1.1,1.45,1.85c0.33,0.82,0.71,1.8,1.35,2.48c0.78,0.83,1.87,1.32,2.67,2.15c0.97,1,1.45,2.19,2.75,2.74
			c2.59,1.1,5.66,0.98,8.31,0.15c1.32-0.41,2.41-0.99,3.48-1.84c1.11-0.89,2.7-1.27,4.01-1.81c1.35-0.56,2.73-1.52,3.94-2.64
			c1.31,1.26,3.41,1.47,4.98,0.45c0.95-0.62,1.76-1.62,2.24-2.64c0.26-0.56,0.37-1.14,0.39-1.74c0.96,0.13,1.97-0.31,2.66-1.04
			c0.49-0.52,0.84-1.16,1.13-1.8c0.35-0.75,0.67-1.51,1-2.27c0.03-0.08,0.04-0.15,0.04-0.22C94.78,26.09,94.74,24.64,94.34,23.15z
			 M51.21,19.62c-0.24-0.15-0.21-0.36-0.15-0.59c0.14-0.58,0.57-0.98,0.93-1.4c0.49-0.56,1.1-1.01,1.65-1.51
			c-0.41,0.81-0.73,1.59-0.94,2.41c-0.23,0.38-0.45,0.77-0.64,1.16C51.79,19.79,51.46,19.78,51.21,19.62z M51.78,24.37
			c0-0.33,0.03-0.66,0.07-0.99c0.11,0.71,0.11,1.43,0.26,2.14c0.4,0.84,0.88,1.64,1.19,2.52c0.36,0.2,0.46,0.43,0.43,0.69
			C52.31,27.95,51.8,25.83,51.78,24.37z M89.28,14.78c0.85,0.61,1.59,1.34,2.06,2.29c0.44,0.89,0.7,1.87,1,2.82
			c0.32,1.03,0.65,2.06,0.96,3.09c0.3,0.99,0.55,2.03,0.31,3.05c-0.1,0.44-0.28,0.85-0.51,1.23c0.64-2.64-0.59-5.67-1.64-8.25
			c-0.73-1.8-1.63-3.57-3.05-4.81C88.71,14.39,89.01,14.59,89.28,14.78z M86.94,14.89c1.29,1.2,2.4,2.56,3.07,4.23
			c-1.43-1.74-2.67-3.63-4.87-4.91C86.09,14.05,86.54,14.51,86.94,14.89z M78.98,8.69c1.04,0.69,1.98,1.59,2.82,2.59
			c-0.19-0.14-0.38-0.28-0.58-0.4c-0.61-0.39-1.06-0.87-1.59-1.3c-0.15-0.12-0.3-0.25-0.47-0.36c-1.35-0.93-3.08-1.25-4.71-1.5
			C76.04,7.57,77.6,7.77,78.98,8.69z M70.23,17.69c0.37,3.35,2.07,6.56,4.02,9.26c-0.09-0.13-0.52-0.24-0.67-0.36
			c-0.22-0.17-0.39-0.39-0.57-0.6c-0.34-0.4-0.64-0.73-0.9-1.2c-0.41-0.73-0.79-1.47-1.11-2.25c-0.19-0.45-0.35-0.92-0.48-1.39
			c-0.41-1.44-0.7-3.09-0.65-4.59C70.15,16.85,70.19,17.29,70.23,17.69z M63.89,14.01c-0.75,0.59-1.5,1.18-2.1,1.91
			c-0.31,0.38-0.58,0.79-0.85,1.2c-0.92,1.41-2.35,3.19-2.73,4.85C59.1,18.16,60.34,15.91,63.89,14.01z M54.42,29.91
			c1.04,1.21,1.44,2.5,1.14,3.88C53.65,32.46,53.29,31.16,54.42,29.91z M73.14,40.06c-0.64,0.32-1.1,0.88-1.74,1.23
			c-2.5,1.38-6.67,2.35-9.27,0.62c-1.21-0.81-1.81-2.22-2.83-3.22c-0.6-0.58-1.29-1.07-1.82-1.72c-1.44-1.77-0.84-4.18-0.95-6.29
			c-0.04-0.8-0.03-1.59-0.01-2.39c0.02-1.44,0.68-2.63,1.34-3.83c0.36-0.66,0.57-0.72,1.3-0.53c1.14,0.3,2.25,0.69,3.3,1.24
			c0.41,0.21,0.84,0.33,1.39,0.44c0.04-0.6-0.03-0.95-0.56-1.33c-0.92-0.66-1.82-1.22-3-1.2c-1.6,0.04-0.3-1.74,0.07-2.5
			c0.5-1.04,1.12-2.08,1.89-2.88c1.15-1.2,2.41-2.27,3.66-3.35c0.24-0.21,0.25-0.23,0.79,0.01c0.18,0.08,0.26-0.03,0.38-0.1
			c0.22-0.13,0.36-0.4,0.66-0.42c0.79,0.9,0.76,2.04,0.9,3.13c0.31,2.39,1.11,4.64,1.91,6.9c0.19,0.53,0.4,1.06,0.62,1.63
			c-0.44,0.01-0.77,0.01-1.11,0.03c-0.21,0.01-0.51-0.1-0.54,0.22c-0.03,0.28,0.12,0.55,0.44,0.57c0.65,0.03,1.26,0.29,1.9,0.36
			c0.61,0.07,1.06,0.36,1.49,0.76c1.26,1.15,2.5,2.33,3.92,3.3c0.63,0.43,0.43,1.06,0.36,1.63c-0.12,0.96-0.64,1.8-1.07,2.63
			C75.61,36.82,74.58,38.58,73.14,40.06z M79.86,36.71c-0.55,1.07-1.52,1.68-2.64,1.97c-0.51,0.13-1.26,0.55-1.6,0.11
			c-0.39-0.51,0.38-0.94,0.63-1.41c0.53-0.99,1.11-1.96,1.65-2.95c0.18-0.33,0.38-0.56,0.76-0.44
			C79.7,34.12,80.39,35.68,79.86,36.71z M79.19,11.39c0.95-0.14,1.4,0.32,1.79,0.7c1.34,1.29,2.17,2.75,2.81,4.35
			c0.38,0.93,0.7,1.91,1.02,2.93c0.54,1.69,0.8,3.58,0.08,5.21C85.56,19.51,83.71,14.11,79.19,11.39z M88.04,34.01
			c-0.37,0.86-1.05,1.71-1.81,2.26c-1.22,0.88-2.86,0.76-3.91-0.23c0.03-0.04,0.07-0.07,0.1-0.11c-0.17,0.18,2.08,0.21,2.3,0.15
			c1.54-0.42,2.66-1.58,3.51-2.76C88.2,33.56,88.14,33.79,88.04,34.01z M91.45,30.81c-0.45,0.59-1.28,1.18-2.06,1.07
			c0.54-0.55,1.1-0.96,1.85-1.62c0.2-0.17,0.38-0.35,0.55-0.54c0.14-0.07,0.28-0.16,0.41-0.24C91.99,29.94,91.76,30.4,91.45,30.81z"
			/>
		<path class="st2" d="M72.18,30.31c-0.78-0.29-1.51-0.71-2.36-0.8c-0.3-0.03-0.61-0.04-0.91-0.1c-0.54-0.13-0.72,0.12-0.87,0.61
			c-0.26,0.86,0.12,1.7,0.95,2.06c0.47,0.2,0.96,0.33,1.44,0.31c1.28-0.05,1.95-0.54,2.04-1.39C72.51,30.64,72.56,30.45,72.18,30.31
			z"/>
		<path class="st2" d="M62.57,27.95c-0.78-0.29-1.54-0.62-2.39-0.7c-0.9-0.08-1.43,0.46-1.27,1.37c0.2,1.12,0.33,1.23,1.83,1.46
			c0.29,0.22,0.71-0.08,1.14-0.13c0.72-0.08,0.77-0.51,1-0.95C63.23,28.34,63.23,28.19,62.57,27.95z"/>
		<path class="st2" d="M65.1,37.58c-1.08,0.53-2.21,0.23-3.4,0.19c0.31,0.83,0.5,1.03,1.38,1.47c0.91,0.47,2.33-0.2,2.51-1.19
			c0.03-0.13-0.05-0.3-0.11-0.43C65.39,37.44,65.25,37.51,65.1,37.58z"/>
		<path class="st2" d="M63.23,33.68c0.29,0.03,0.37-0.22,0.45-0.42c0.17-0.41,1.11-2.36,0.15-1.47c-0.36,0.34-0.56,1.06-0.74,1.52
			C63.03,33.44,63.03,33.6,63.23,33.68z"/>
	</g>
</g>
</svg>
